G75*
G70*
%OFA0B0*%
%FSLAX24Y24*%
%IPPOS*%
%LPD*%
%AMOC8*
5,1,8,0,0,1.08239X$1,22.5*
%
%ADD10C,0.0000*%
%ADD11C,0.0080*%
%ADD12C,0.0050*%
%ADD13C,0.0160*%
%ADD14C,0.0060*%
%ADD15R,0.0110X0.0300*%
%ADD16C,0.0040*%
%ADD17C,0.0020*%
D10*
X000450Y000500D02*
X024250Y000500D01*
X024250Y027650D01*
X000450Y027650D01*
X000450Y000500D01*
X002820Y006050D02*
X002822Y006100D01*
X002828Y006150D01*
X002838Y006199D01*
X002852Y006247D01*
X002869Y006294D01*
X002890Y006339D01*
X002915Y006383D01*
X002943Y006424D01*
X002975Y006463D01*
X003009Y006500D01*
X003046Y006534D01*
X003086Y006564D01*
X003128Y006591D01*
X003172Y006615D01*
X003218Y006636D01*
X003265Y006652D01*
X003313Y006665D01*
X003363Y006674D01*
X003412Y006679D01*
X003463Y006680D01*
X003513Y006677D01*
X003562Y006670D01*
X003611Y006659D01*
X003659Y006644D01*
X003705Y006626D01*
X003750Y006604D01*
X003793Y006578D01*
X003834Y006549D01*
X003873Y006517D01*
X003909Y006482D01*
X003941Y006444D01*
X003971Y006404D01*
X003998Y006361D01*
X004021Y006317D01*
X004040Y006271D01*
X004056Y006223D01*
X004068Y006174D01*
X004076Y006125D01*
X004080Y006075D01*
X004080Y006025D01*
X004076Y005975D01*
X004068Y005926D01*
X004056Y005877D01*
X004040Y005829D01*
X004021Y005783D01*
X003998Y005739D01*
X003971Y005696D01*
X003941Y005656D01*
X003909Y005618D01*
X003873Y005583D01*
X003834Y005551D01*
X003793Y005522D01*
X003750Y005496D01*
X003705Y005474D01*
X003659Y005456D01*
X003611Y005441D01*
X003562Y005430D01*
X003513Y005423D01*
X003463Y005420D01*
X003412Y005421D01*
X003363Y005426D01*
X003313Y005435D01*
X003265Y005448D01*
X003218Y005464D01*
X003172Y005485D01*
X003128Y005509D01*
X003086Y005536D01*
X003046Y005566D01*
X003009Y005600D01*
X002975Y005637D01*
X002943Y005676D01*
X002915Y005717D01*
X002890Y005761D01*
X002869Y005806D01*
X002852Y005853D01*
X002838Y005901D01*
X002828Y005950D01*
X002822Y006000D01*
X002820Y006050D01*
X013820Y006050D02*
X013822Y006100D01*
X013828Y006150D01*
X013838Y006199D01*
X013852Y006247D01*
X013869Y006294D01*
X013890Y006339D01*
X013915Y006383D01*
X013943Y006424D01*
X013975Y006463D01*
X014009Y006500D01*
X014046Y006534D01*
X014086Y006564D01*
X014128Y006591D01*
X014172Y006615D01*
X014218Y006636D01*
X014265Y006652D01*
X014313Y006665D01*
X014363Y006674D01*
X014412Y006679D01*
X014463Y006680D01*
X014513Y006677D01*
X014562Y006670D01*
X014611Y006659D01*
X014659Y006644D01*
X014705Y006626D01*
X014750Y006604D01*
X014793Y006578D01*
X014834Y006549D01*
X014873Y006517D01*
X014909Y006482D01*
X014941Y006444D01*
X014971Y006404D01*
X014998Y006361D01*
X015021Y006317D01*
X015040Y006271D01*
X015056Y006223D01*
X015068Y006174D01*
X015076Y006125D01*
X015080Y006075D01*
X015080Y006025D01*
X015076Y005975D01*
X015068Y005926D01*
X015056Y005877D01*
X015040Y005829D01*
X015021Y005783D01*
X014998Y005739D01*
X014971Y005696D01*
X014941Y005656D01*
X014909Y005618D01*
X014873Y005583D01*
X014834Y005551D01*
X014793Y005522D01*
X014750Y005496D01*
X014705Y005474D01*
X014659Y005456D01*
X014611Y005441D01*
X014562Y005430D01*
X014513Y005423D01*
X014463Y005420D01*
X014412Y005421D01*
X014363Y005426D01*
X014313Y005435D01*
X014265Y005448D01*
X014218Y005464D01*
X014172Y005485D01*
X014128Y005509D01*
X014086Y005536D01*
X014046Y005566D01*
X014009Y005600D01*
X013975Y005637D01*
X013943Y005676D01*
X013915Y005717D01*
X013890Y005761D01*
X013869Y005806D01*
X013852Y005853D01*
X013838Y005901D01*
X013828Y005950D01*
X013822Y006000D01*
X013820Y006050D01*
X022569Y001484D02*
X022571Y001528D01*
X022577Y001572D01*
X022587Y001615D01*
X022600Y001657D01*
X022618Y001697D01*
X022639Y001736D01*
X022663Y001773D01*
X022690Y001808D01*
X022721Y001840D01*
X022754Y001869D01*
X022790Y001895D01*
X022828Y001917D01*
X022868Y001936D01*
X022909Y001952D01*
X022952Y001964D01*
X022995Y001972D01*
X023039Y001976D01*
X023083Y001976D01*
X023127Y001972D01*
X023170Y001964D01*
X023213Y001952D01*
X023254Y001936D01*
X023294Y001917D01*
X023332Y001895D01*
X023368Y001869D01*
X023401Y001840D01*
X023432Y001808D01*
X023459Y001773D01*
X023483Y001736D01*
X023504Y001697D01*
X023522Y001657D01*
X023535Y001615D01*
X023545Y001572D01*
X023551Y001528D01*
X023553Y001484D01*
X023551Y001440D01*
X023545Y001396D01*
X023535Y001353D01*
X023522Y001311D01*
X023504Y001271D01*
X023483Y001232D01*
X023459Y001195D01*
X023432Y001160D01*
X023401Y001128D01*
X023368Y001099D01*
X023332Y001073D01*
X023294Y001051D01*
X023254Y001032D01*
X023213Y001016D01*
X023170Y001004D01*
X023127Y000996D01*
X023083Y000992D01*
X023039Y000992D01*
X022995Y000996D01*
X022952Y001004D01*
X022909Y001016D01*
X022868Y001032D01*
X022828Y001051D01*
X022790Y001073D01*
X022754Y001099D01*
X022721Y001128D01*
X022690Y001160D01*
X022663Y001195D01*
X022639Y001232D01*
X022618Y001271D01*
X022600Y001311D01*
X022587Y001353D01*
X022577Y001396D01*
X022571Y001440D01*
X022569Y001484D01*
X019820Y026050D02*
X019822Y026100D01*
X019828Y026150D01*
X019838Y026199D01*
X019852Y026247D01*
X019869Y026294D01*
X019890Y026339D01*
X019915Y026383D01*
X019943Y026424D01*
X019975Y026463D01*
X020009Y026500D01*
X020046Y026534D01*
X020086Y026564D01*
X020128Y026591D01*
X020172Y026615D01*
X020218Y026636D01*
X020265Y026652D01*
X020313Y026665D01*
X020363Y026674D01*
X020412Y026679D01*
X020463Y026680D01*
X020513Y026677D01*
X020562Y026670D01*
X020611Y026659D01*
X020659Y026644D01*
X020705Y026626D01*
X020750Y026604D01*
X020793Y026578D01*
X020834Y026549D01*
X020873Y026517D01*
X020909Y026482D01*
X020941Y026444D01*
X020971Y026404D01*
X020998Y026361D01*
X021021Y026317D01*
X021040Y026271D01*
X021056Y026223D01*
X021068Y026174D01*
X021076Y026125D01*
X021080Y026075D01*
X021080Y026025D01*
X021076Y025975D01*
X021068Y025926D01*
X021056Y025877D01*
X021040Y025829D01*
X021021Y025783D01*
X020998Y025739D01*
X020971Y025696D01*
X020941Y025656D01*
X020909Y025618D01*
X020873Y025583D01*
X020834Y025551D01*
X020793Y025522D01*
X020750Y025496D01*
X020705Y025474D01*
X020659Y025456D01*
X020611Y025441D01*
X020562Y025430D01*
X020513Y025423D01*
X020463Y025420D01*
X020412Y025421D01*
X020363Y025426D01*
X020313Y025435D01*
X020265Y025448D01*
X020218Y025464D01*
X020172Y025485D01*
X020128Y025509D01*
X020086Y025536D01*
X020046Y025566D01*
X020009Y025600D01*
X019975Y025637D01*
X019943Y025676D01*
X019915Y025717D01*
X019890Y025761D01*
X019869Y025806D01*
X019852Y025853D01*
X019838Y025901D01*
X019828Y025950D01*
X019822Y026000D01*
X019820Y026050D01*
X000820Y026550D02*
X000822Y026600D01*
X000828Y026650D01*
X000838Y026699D01*
X000852Y026747D01*
X000869Y026794D01*
X000890Y026839D01*
X000915Y026883D01*
X000943Y026924D01*
X000975Y026963D01*
X001009Y027000D01*
X001046Y027034D01*
X001086Y027064D01*
X001128Y027091D01*
X001172Y027115D01*
X001218Y027136D01*
X001265Y027152D01*
X001313Y027165D01*
X001363Y027174D01*
X001412Y027179D01*
X001463Y027180D01*
X001513Y027177D01*
X001562Y027170D01*
X001611Y027159D01*
X001659Y027144D01*
X001705Y027126D01*
X001750Y027104D01*
X001793Y027078D01*
X001834Y027049D01*
X001873Y027017D01*
X001909Y026982D01*
X001941Y026944D01*
X001971Y026904D01*
X001998Y026861D01*
X002021Y026817D01*
X002040Y026771D01*
X002056Y026723D01*
X002068Y026674D01*
X002076Y026625D01*
X002080Y026575D01*
X002080Y026525D01*
X002076Y026475D01*
X002068Y026426D01*
X002056Y026377D01*
X002040Y026329D01*
X002021Y026283D01*
X001998Y026239D01*
X001971Y026196D01*
X001941Y026156D01*
X001909Y026118D01*
X001873Y026083D01*
X001834Y026051D01*
X001793Y026022D01*
X001750Y025996D01*
X001705Y025974D01*
X001659Y025956D01*
X001611Y025941D01*
X001562Y025930D01*
X001513Y025923D01*
X001463Y025920D01*
X001412Y025921D01*
X001363Y025926D01*
X001313Y025935D01*
X001265Y025948D01*
X001218Y025964D01*
X001172Y025985D01*
X001128Y026009D01*
X001086Y026036D01*
X001046Y026066D01*
X001009Y026100D01*
X000975Y026137D01*
X000943Y026176D01*
X000915Y026217D01*
X000890Y026261D01*
X000869Y026306D01*
X000852Y026353D01*
X000838Y026401D01*
X000828Y026450D01*
X000822Y026500D01*
X000820Y026550D01*
D11*
X022564Y019056D02*
X022674Y019166D01*
X023064Y019166D01*
X023064Y019066D01*
X023064Y019166D02*
X023454Y019166D01*
X023564Y019056D01*
X023064Y018266D02*
X023064Y018066D01*
X023064Y017266D02*
X023064Y017066D01*
X023064Y016266D02*
X023064Y016066D01*
X023064Y015266D02*
X023064Y015066D01*
X023064Y014266D02*
X023064Y014066D01*
X023064Y013266D02*
X023064Y013066D01*
X023064Y012266D02*
X023064Y012066D01*
X023064Y011266D02*
X023064Y011066D01*
X023064Y010266D02*
X023064Y010066D01*
X023064Y009266D02*
X023064Y009066D01*
X023064Y008266D02*
X023064Y008066D01*
X023064Y007266D02*
X023064Y007066D01*
X023064Y006266D02*
X023064Y006066D01*
X023064Y005266D02*
X023064Y005066D01*
X023064Y004266D02*
X023064Y004066D01*
X023064Y003266D02*
X023064Y003166D01*
X022674Y003166D01*
X022564Y003276D01*
X022000Y003100D02*
X022000Y003600D01*
X023454Y003166D02*
X023564Y003276D01*
X018000Y003100D02*
X018000Y003600D01*
X017450Y003700D02*
X017450Y003200D01*
X013450Y003200D02*
X013450Y003700D01*
X012750Y003650D02*
X012750Y003150D01*
X008750Y003150D02*
X008750Y003650D01*
X007560Y003660D02*
X007560Y003380D01*
X007420Y003240D01*
X007280Y003380D01*
X007280Y003660D01*
X007099Y003660D02*
X006819Y003660D01*
X006819Y003450D01*
X006959Y003520D01*
X007029Y003520D01*
X007099Y003450D01*
X007099Y003310D01*
X007029Y003240D01*
X006889Y003240D01*
X006819Y003310D01*
X006200Y003150D02*
X006200Y003650D01*
X005340Y002210D02*
X005200Y002210D01*
X005130Y002140D01*
X005130Y001860D01*
X005200Y001790D01*
X005340Y001790D01*
X005410Y001860D01*
X005410Y002140D02*
X005340Y002210D01*
X004949Y002140D02*
X004879Y002210D01*
X004739Y002210D01*
X004669Y002140D01*
X004669Y001860D01*
X004739Y001790D01*
X004879Y001790D01*
X004949Y001860D01*
X004489Y001930D02*
X004489Y002210D01*
X004489Y001930D02*
X004349Y001790D01*
X004209Y001930D01*
X004209Y002210D01*
X003200Y003150D02*
X003200Y003650D01*
X002410Y003660D02*
X002410Y003380D01*
X002270Y003240D01*
X002130Y003380D01*
X002130Y003660D01*
X001949Y003590D02*
X001949Y003520D01*
X001879Y003450D01*
X001949Y003380D01*
X001949Y003310D01*
X001879Y003240D01*
X001739Y003240D01*
X001669Y003310D01*
X001509Y003310D02*
X001509Y003240D01*
X001439Y003240D01*
X001439Y003310D01*
X001509Y003310D01*
X001259Y003310D02*
X001189Y003240D01*
X001049Y003240D01*
X000979Y003310D01*
X001119Y003450D02*
X001189Y003450D01*
X001259Y003380D01*
X001259Y003310D01*
X001189Y003450D02*
X001259Y003520D01*
X001259Y003590D01*
X001189Y003660D01*
X001049Y003660D01*
X000979Y003590D01*
X001669Y003590D02*
X001739Y003660D01*
X001879Y003660D01*
X001949Y003590D01*
X001879Y003450D02*
X001809Y003450D01*
D12*
X003195Y004437D02*
X003237Y004395D01*
X003320Y004395D01*
X003362Y004437D01*
X003362Y004478D01*
X003320Y004520D01*
X003237Y004520D01*
X003195Y004562D01*
X003195Y004604D01*
X003237Y004645D01*
X003320Y004645D01*
X003362Y004604D01*
X003471Y004562D02*
X003555Y004645D01*
X003555Y004395D01*
X003638Y004395D02*
X003471Y004395D01*
X004760Y007438D02*
X004760Y007689D01*
X004885Y007689D01*
X004927Y007647D01*
X004927Y007563D01*
X004885Y007522D01*
X004760Y007522D01*
X004843Y007522D02*
X004927Y007438D01*
X005036Y007438D02*
X005203Y007438D01*
X005120Y007438D02*
X005120Y007689D01*
X005036Y007605D01*
X008745Y004437D02*
X008787Y004395D01*
X008828Y004395D01*
X008870Y004437D01*
X008870Y004645D01*
X008828Y004645D02*
X008912Y004645D01*
X009021Y004562D02*
X009105Y004645D01*
X009105Y004395D01*
X009188Y004395D02*
X009021Y004395D01*
X013445Y004487D02*
X013487Y004445D01*
X013528Y004445D01*
X013570Y004487D01*
X013570Y004695D01*
X013528Y004695D02*
X013612Y004695D01*
X013721Y004654D02*
X013763Y004695D01*
X013846Y004695D01*
X013888Y004654D01*
X013888Y004612D01*
X013721Y004445D01*
X013888Y004445D01*
X015525Y006875D02*
X015525Y010625D01*
X019275Y010625D01*
X019275Y006875D01*
X015525Y006875D01*
X016100Y008750D02*
X016102Y008822D01*
X016108Y008893D01*
X016118Y008964D01*
X016131Y009034D01*
X016149Y009104D01*
X016170Y009172D01*
X016196Y009239D01*
X016224Y009305D01*
X016257Y009369D01*
X016293Y009431D01*
X016332Y009491D01*
X016374Y009548D01*
X016420Y009604D01*
X016468Y009656D01*
X016520Y009706D01*
X016574Y009753D01*
X016630Y009797D01*
X016689Y009838D01*
X016750Y009876D01*
X016813Y009910D01*
X016878Y009941D01*
X016944Y009967D01*
X017012Y009991D01*
X017081Y010010D01*
X017151Y010026D01*
X017221Y010038D01*
X017293Y010046D01*
X017364Y010050D01*
X017436Y010050D01*
X017507Y010046D01*
X017579Y010038D01*
X017649Y010026D01*
X017719Y010010D01*
X017788Y009991D01*
X017856Y009967D01*
X017922Y009941D01*
X017987Y009910D01*
X018050Y009876D01*
X018111Y009838D01*
X018170Y009797D01*
X018226Y009753D01*
X018280Y009706D01*
X018332Y009656D01*
X018380Y009604D01*
X018426Y009548D01*
X018468Y009491D01*
X018507Y009431D01*
X018543Y009369D01*
X018576Y009305D01*
X018604Y009239D01*
X018630Y009172D01*
X018651Y009104D01*
X018669Y009034D01*
X018682Y008964D01*
X018692Y008893D01*
X018698Y008822D01*
X018700Y008750D01*
X018698Y008678D01*
X018692Y008607D01*
X018682Y008536D01*
X018669Y008466D01*
X018651Y008396D01*
X018630Y008328D01*
X018604Y008261D01*
X018576Y008195D01*
X018543Y008131D01*
X018507Y008069D01*
X018468Y008009D01*
X018426Y007952D01*
X018380Y007896D01*
X018332Y007844D01*
X018280Y007794D01*
X018226Y007747D01*
X018170Y007703D01*
X018111Y007662D01*
X018050Y007624D01*
X017987Y007590D01*
X017922Y007559D01*
X017856Y007533D01*
X017788Y007509D01*
X017719Y007490D01*
X017649Y007474D01*
X017579Y007462D01*
X017507Y007454D01*
X017436Y007450D01*
X017364Y007450D01*
X017293Y007454D01*
X017221Y007462D01*
X017151Y007474D01*
X017081Y007490D01*
X017012Y007509D01*
X016944Y007533D01*
X016878Y007559D01*
X016813Y007590D01*
X016750Y007624D01*
X016689Y007662D01*
X016630Y007703D01*
X016574Y007747D01*
X016520Y007794D01*
X016468Y007844D01*
X016420Y007896D01*
X016374Y007952D01*
X016332Y008009D01*
X016293Y008069D01*
X016257Y008131D01*
X016224Y008195D01*
X016196Y008261D01*
X016170Y008328D01*
X016149Y008396D01*
X016131Y008466D01*
X016118Y008536D01*
X016108Y008607D01*
X016102Y008678D01*
X016100Y008750D01*
X016118Y010825D02*
X015951Y010825D01*
X016118Y010992D01*
X016118Y011034D01*
X016076Y011075D01*
X015993Y011075D01*
X015951Y011034D01*
X015842Y011034D02*
X015842Y010950D01*
X015800Y010908D01*
X015675Y010908D01*
X015675Y010825D02*
X015675Y011075D01*
X015800Y011075D01*
X015842Y011034D01*
X015758Y010908D02*
X015842Y010825D01*
X017141Y011867D02*
X017183Y011825D01*
X017266Y011825D01*
X017308Y011867D01*
X017308Y011908D01*
X017266Y011950D01*
X017183Y011950D01*
X017141Y011992D01*
X017141Y012034D01*
X017183Y012075D01*
X017266Y012075D01*
X017308Y012034D01*
X017418Y012075D02*
X017418Y011825D01*
X017584Y011825D01*
X017694Y011825D02*
X017694Y012075D01*
X017861Y011825D01*
X017861Y012075D01*
X017970Y012034D02*
X017970Y011992D01*
X018012Y011950D01*
X018095Y011950D01*
X018137Y011908D01*
X018137Y011867D01*
X018095Y011825D01*
X018012Y011825D01*
X017970Y011867D01*
X017970Y012034D02*
X018012Y012075D01*
X018095Y012075D01*
X018137Y012034D01*
X018246Y012034D02*
X018246Y011867D01*
X018288Y011825D01*
X018371Y011825D01*
X018413Y011867D01*
X018413Y012034D01*
X018371Y012075D01*
X018288Y012075D01*
X018246Y012034D01*
X018523Y012075D02*
X018648Y012075D01*
X018689Y012034D01*
X018689Y011950D01*
X018648Y011908D01*
X018523Y011908D01*
X018606Y011908D02*
X018689Y011825D01*
X018799Y011950D02*
X018924Y012075D01*
X018924Y011825D01*
X018966Y011950D02*
X018799Y011950D01*
X018523Y011825D02*
X018523Y012075D01*
X019400Y012300D02*
X011400Y012300D01*
X011400Y016300D01*
X019400Y016300D01*
X019400Y012300D01*
X017584Y012075D02*
X017418Y012075D01*
X017418Y011950D02*
X017501Y011950D01*
X021975Y011750D02*
X021975Y011667D01*
X022016Y011625D01*
X022058Y011625D01*
X022100Y011667D01*
X022100Y011792D01*
X022183Y011792D02*
X022016Y011792D01*
X021975Y011750D01*
X022183Y011792D02*
X022225Y011750D01*
X022225Y011667D01*
X022183Y011625D01*
X022183Y010792D02*
X022225Y010750D01*
X022225Y010667D01*
X022183Y010625D01*
X022142Y010625D01*
X022100Y010667D01*
X022100Y010750D01*
X022142Y010792D01*
X022183Y010792D01*
X022100Y010750D02*
X022058Y010792D01*
X022016Y010792D01*
X021975Y010750D01*
X021975Y010667D01*
X022016Y010625D01*
X022058Y010625D01*
X022100Y010667D01*
X022016Y009792D02*
X022183Y009625D01*
X022225Y009625D01*
X021975Y009625D02*
X021975Y009792D01*
X022016Y009792D01*
X021975Y008742D02*
X022016Y008658D01*
X022100Y008575D01*
X022100Y008700D01*
X022142Y008742D01*
X022183Y008742D01*
X022225Y008700D01*
X022225Y008617D01*
X022183Y008575D01*
X022100Y008575D01*
X022100Y007792D02*
X022183Y007792D01*
X022225Y007750D01*
X022225Y007667D01*
X022183Y007625D01*
X022100Y007625D02*
X022058Y007708D01*
X022058Y007750D01*
X022100Y007792D01*
X021975Y007792D02*
X021975Y007625D01*
X022100Y007625D01*
X022100Y006742D02*
X022100Y006575D01*
X021975Y006700D01*
X022225Y006700D01*
X022183Y005792D02*
X022225Y005750D01*
X022225Y005667D01*
X022183Y005625D01*
X022100Y005708D02*
X022100Y005750D01*
X022142Y005792D01*
X022183Y005792D01*
X022100Y005750D02*
X022058Y005792D01*
X022016Y005792D01*
X021975Y005750D01*
X021975Y005667D01*
X022016Y005625D01*
X022016Y004792D02*
X021975Y004750D01*
X021975Y004667D01*
X022016Y004625D01*
X022016Y004792D02*
X022058Y004792D01*
X022225Y004625D01*
X022225Y004792D01*
X022275Y003792D02*
X022275Y003625D01*
X022275Y003708D02*
X022025Y003708D01*
X022108Y003625D01*
X018438Y004387D02*
X018396Y004345D01*
X018313Y004345D01*
X018271Y004387D01*
X018355Y004470D02*
X018396Y004470D01*
X018438Y004428D01*
X018438Y004387D01*
X018396Y004470D02*
X018438Y004512D01*
X018438Y004554D01*
X018396Y004595D01*
X018313Y004595D01*
X018271Y004554D01*
X018162Y004595D02*
X018078Y004595D01*
X018120Y004595D02*
X018120Y004387D01*
X018078Y004345D01*
X018037Y004345D01*
X017995Y004387D01*
X011718Y010025D02*
X011551Y010025D01*
X011718Y010192D01*
X011718Y010234D01*
X011676Y010275D01*
X011593Y010275D01*
X011551Y010234D01*
X011442Y010234D02*
X011400Y010275D01*
X011317Y010275D01*
X011275Y010234D01*
X011275Y010192D01*
X011317Y010150D01*
X011400Y010150D01*
X011442Y010108D01*
X011442Y010067D01*
X011400Y010025D01*
X011317Y010025D01*
X011275Y010067D01*
X010516Y011825D02*
X010349Y011825D01*
X010432Y011825D02*
X010432Y012075D01*
X010349Y011992D01*
X010239Y012034D02*
X010198Y012075D01*
X010073Y012075D01*
X010073Y011825D01*
X010073Y011908D02*
X010198Y011908D01*
X010239Y011950D01*
X010239Y012034D01*
X010156Y011908D02*
X010239Y011825D01*
X009963Y011867D02*
X009963Y012034D01*
X009921Y012075D01*
X009838Y012075D01*
X009796Y012034D01*
X009796Y011867D01*
X009838Y011825D01*
X009921Y011825D01*
X009963Y011867D01*
X009687Y011867D02*
X009645Y011825D01*
X009562Y011825D01*
X009520Y011867D01*
X009562Y011950D02*
X009520Y011992D01*
X009520Y012034D01*
X009562Y012075D01*
X009645Y012075D01*
X009687Y012034D01*
X009645Y011950D02*
X009687Y011908D01*
X009687Y011867D01*
X009645Y011950D02*
X009562Y011950D01*
X009411Y011825D02*
X009411Y012075D01*
X009244Y012075D02*
X009411Y011825D01*
X009244Y011825D02*
X009244Y012075D01*
X009134Y012075D02*
X008968Y012075D01*
X008968Y011825D01*
X009134Y011825D01*
X009051Y011950D02*
X008968Y011950D01*
X008858Y011908D02*
X008858Y011867D01*
X008816Y011825D01*
X008733Y011825D01*
X008691Y011867D01*
X008733Y011950D02*
X008816Y011950D01*
X008858Y011908D01*
X008858Y012034D02*
X008816Y012075D01*
X008733Y012075D01*
X008691Y012034D01*
X008691Y011992D01*
X008733Y011950D01*
X010850Y012300D02*
X002850Y012300D01*
X002850Y016300D01*
X010850Y016300D01*
X010850Y012300D01*
X010975Y012343D02*
X011016Y012301D01*
X011183Y012301D01*
X011225Y012343D01*
X011225Y012426D01*
X011183Y012468D01*
X011016Y012468D01*
X010975Y012426D01*
X010975Y012343D01*
X010975Y012192D02*
X011142Y012192D01*
X011225Y012108D01*
X011142Y012025D01*
X010975Y012025D01*
X010975Y012577D02*
X011183Y012577D01*
X011225Y012619D01*
X011225Y012703D01*
X011183Y012744D01*
X010975Y012744D01*
X010975Y012854D02*
X010975Y013021D01*
X010975Y012937D02*
X011225Y012937D01*
X011183Y013375D02*
X011016Y013375D01*
X010975Y013417D01*
X010975Y013500D01*
X011016Y013542D01*
X011100Y013542D02*
X011100Y013458D01*
X011100Y013542D02*
X011183Y013542D01*
X011225Y013500D01*
X011225Y013417D01*
X011183Y013375D01*
X011225Y013651D02*
X010975Y013651D01*
X011225Y013818D01*
X010975Y013818D01*
X010975Y013927D02*
X010975Y014053D01*
X011016Y014094D01*
X011183Y014094D01*
X011225Y014053D01*
X011225Y013927D01*
X010975Y013927D01*
X010975Y014475D02*
X011142Y014475D01*
X011225Y014558D01*
X011142Y014642D01*
X010975Y014642D01*
X010975Y014751D02*
X010975Y014835D01*
X010975Y014793D02*
X011225Y014793D01*
X011225Y014751D02*
X011225Y014835D01*
X011225Y014935D02*
X010975Y014935D01*
X011225Y015102D01*
X010975Y015102D01*
X010516Y017225D02*
X010349Y017225D01*
X010516Y017392D01*
X010516Y017434D01*
X010474Y017475D01*
X010390Y017475D01*
X010349Y017434D01*
X010239Y017434D02*
X010239Y017350D01*
X010198Y017308D01*
X010073Y017308D01*
X010156Y017308D02*
X010239Y017225D01*
X010073Y017225D02*
X010073Y017475D01*
X010198Y017475D01*
X010239Y017434D01*
X009963Y017434D02*
X009921Y017475D01*
X009838Y017475D01*
X009796Y017434D01*
X009796Y017267D01*
X009838Y017225D01*
X009921Y017225D01*
X009963Y017267D01*
X009963Y017434D01*
X009687Y017434D02*
X009645Y017475D01*
X009562Y017475D01*
X009520Y017434D01*
X009520Y017392D01*
X009562Y017350D01*
X009645Y017350D01*
X009687Y017308D01*
X009687Y017267D01*
X009645Y017225D01*
X009562Y017225D01*
X009520Y017267D01*
X009411Y017225D02*
X009411Y017475D01*
X009244Y017475D02*
X009411Y017225D01*
X009244Y017225D02*
X009244Y017475D01*
X009134Y017475D02*
X008968Y017475D01*
X008968Y017225D01*
X009134Y017225D01*
X009051Y017350D02*
X008968Y017350D01*
X008858Y017308D02*
X008858Y017267D01*
X008816Y017225D01*
X008733Y017225D01*
X008691Y017267D01*
X008733Y017350D02*
X008816Y017350D01*
X008858Y017308D01*
X008858Y017434D02*
X008816Y017475D01*
X008733Y017475D01*
X008691Y017434D01*
X008691Y017392D01*
X008733Y017350D01*
X010850Y017700D02*
X002850Y017700D01*
X002850Y021700D01*
X010850Y021700D01*
X010850Y017700D01*
X010975Y017743D02*
X011016Y017701D01*
X011183Y017701D01*
X011225Y017743D01*
X011225Y017826D01*
X011183Y017868D01*
X011016Y017868D01*
X010975Y017826D01*
X010975Y017743D01*
X010975Y017592D02*
X011142Y017592D01*
X011225Y017508D01*
X011142Y017425D01*
X010975Y017425D01*
X011400Y017700D02*
X019400Y017700D01*
X019400Y021700D01*
X011400Y021700D01*
X011400Y017700D01*
X011183Y017977D02*
X011225Y018019D01*
X011225Y018103D01*
X011183Y018144D01*
X010975Y018144D01*
X010975Y018254D02*
X010975Y018421D01*
X010975Y018337D02*
X011225Y018337D01*
X011183Y017977D02*
X010975Y017977D01*
X011016Y018775D02*
X011183Y018775D01*
X011225Y018817D01*
X011225Y018900D01*
X011183Y018942D01*
X011100Y018942D01*
X011100Y018858D01*
X011016Y018775D02*
X010975Y018817D01*
X010975Y018900D01*
X011016Y018942D01*
X010975Y019051D02*
X011225Y019218D01*
X010975Y019218D01*
X010975Y019327D02*
X010975Y019453D01*
X011016Y019494D01*
X011183Y019494D01*
X011225Y019453D01*
X011225Y019327D01*
X010975Y019327D01*
X010975Y019051D02*
X011225Y019051D01*
X011142Y019875D02*
X010975Y019875D01*
X011142Y019875D02*
X011225Y019958D01*
X011142Y020042D01*
X010975Y020042D01*
X010975Y020151D02*
X010975Y020235D01*
X010975Y020193D02*
X011225Y020193D01*
X011225Y020151D02*
X011225Y020235D01*
X011225Y020335D02*
X010975Y020335D01*
X011225Y020502D01*
X010975Y020502D01*
X010474Y022625D02*
X010390Y022625D01*
X010349Y022667D01*
X010239Y022625D02*
X010156Y022708D01*
X010198Y022708D02*
X010073Y022708D01*
X010073Y022625D02*
X010073Y022875D01*
X010198Y022875D01*
X010239Y022834D01*
X010239Y022750D01*
X010198Y022708D01*
X010349Y022834D02*
X010390Y022875D01*
X010474Y022875D01*
X010516Y022834D01*
X010516Y022792D01*
X010474Y022750D01*
X010516Y022708D01*
X010516Y022667D01*
X010474Y022625D01*
X010474Y022750D02*
X010432Y022750D01*
X009963Y022667D02*
X009963Y022834D01*
X009921Y022875D01*
X009838Y022875D01*
X009796Y022834D01*
X009796Y022667D01*
X009838Y022625D01*
X009921Y022625D01*
X009963Y022667D01*
X009687Y022667D02*
X009645Y022625D01*
X009562Y022625D01*
X009520Y022667D01*
X009562Y022750D02*
X009520Y022792D01*
X009520Y022834D01*
X009562Y022875D01*
X009645Y022875D01*
X009687Y022834D01*
X009645Y022750D02*
X009687Y022708D01*
X009687Y022667D01*
X009645Y022750D02*
X009562Y022750D01*
X009411Y022625D02*
X009411Y022875D01*
X009244Y022875D02*
X009411Y022625D01*
X009244Y022625D02*
X009244Y022875D01*
X009134Y022875D02*
X008968Y022875D01*
X008968Y022625D01*
X009134Y022625D01*
X009051Y022750D02*
X008968Y022750D01*
X008858Y022708D02*
X008858Y022667D01*
X008816Y022625D01*
X008733Y022625D01*
X008691Y022667D01*
X008733Y022750D02*
X008816Y022750D01*
X008858Y022708D01*
X008858Y022834D02*
X008816Y022875D01*
X008733Y022875D01*
X008691Y022834D01*
X008691Y022792D01*
X008733Y022750D01*
X010850Y023100D02*
X002850Y023100D01*
X002850Y027100D01*
X010850Y027100D01*
X010850Y023100D01*
X010975Y023143D02*
X011016Y023101D01*
X011183Y023101D01*
X011225Y023143D01*
X011225Y023226D01*
X011183Y023268D01*
X011016Y023268D01*
X010975Y023226D01*
X010975Y023143D01*
X010975Y022992D02*
X011142Y022992D01*
X011225Y022908D01*
X011142Y022825D01*
X010975Y022825D01*
X010975Y023377D02*
X011183Y023377D01*
X011225Y023419D01*
X011225Y023503D01*
X011183Y023544D01*
X010975Y023544D01*
X010975Y023654D02*
X010975Y023821D01*
X010975Y023737D02*
X011225Y023737D01*
X011183Y024175D02*
X011016Y024175D01*
X010975Y024217D01*
X010975Y024300D01*
X011016Y024342D01*
X011100Y024342D02*
X011100Y024258D01*
X011100Y024342D02*
X011183Y024342D01*
X011225Y024300D01*
X011225Y024217D01*
X011183Y024175D01*
X011225Y024451D02*
X010975Y024451D01*
X011225Y024618D01*
X010975Y024618D01*
X010975Y024727D02*
X010975Y024853D01*
X011016Y024894D01*
X011183Y024894D01*
X011225Y024853D01*
X011225Y024727D01*
X010975Y024727D01*
X010975Y025275D02*
X011142Y025275D01*
X011225Y025358D01*
X011142Y025442D01*
X010975Y025442D01*
X010975Y025551D02*
X010975Y025635D01*
X010975Y025593D02*
X011225Y025593D01*
X011225Y025551D02*
X011225Y025635D01*
X011225Y025735D02*
X010975Y025735D01*
X011225Y025902D01*
X010975Y025902D01*
X011400Y027100D02*
X011400Y023100D01*
X019400Y023100D01*
X019400Y027100D01*
X011400Y027100D01*
X016991Y022834D02*
X016991Y022792D01*
X017033Y022750D01*
X017116Y022750D01*
X017158Y022708D01*
X017158Y022667D01*
X017116Y022625D01*
X017033Y022625D01*
X016991Y022667D01*
X016991Y022834D02*
X017033Y022875D01*
X017116Y022875D01*
X017158Y022834D01*
X017268Y022875D02*
X017268Y022625D01*
X017434Y022625D01*
X017544Y022625D02*
X017544Y022875D01*
X017711Y022625D01*
X017711Y022875D01*
X017820Y022834D02*
X017820Y022792D01*
X017862Y022750D01*
X017945Y022750D01*
X017987Y022708D01*
X017987Y022667D01*
X017945Y022625D01*
X017862Y022625D01*
X017820Y022667D01*
X017820Y022834D02*
X017862Y022875D01*
X017945Y022875D01*
X017987Y022834D01*
X018096Y022834D02*
X018096Y022667D01*
X018138Y022625D01*
X018221Y022625D01*
X018263Y022667D01*
X018263Y022834D01*
X018221Y022875D01*
X018138Y022875D01*
X018096Y022834D01*
X018373Y022875D02*
X018498Y022875D01*
X018539Y022834D01*
X018539Y022750D01*
X018498Y022708D01*
X018373Y022708D01*
X018456Y022708D02*
X018539Y022625D01*
X018649Y022667D02*
X018690Y022625D01*
X018774Y022625D01*
X018816Y022667D01*
X018816Y022708D01*
X018774Y022750D01*
X018649Y022750D01*
X018649Y022667D01*
X018649Y022750D02*
X018732Y022834D01*
X018816Y022875D01*
X018373Y022875D02*
X018373Y022625D01*
X017434Y022875D02*
X017268Y022875D01*
X017268Y022750D02*
X017351Y022750D01*
X021975Y018918D02*
X022016Y018835D01*
X022100Y018751D01*
X022100Y018876D01*
X022142Y018918D01*
X022183Y018918D01*
X022225Y018876D01*
X022225Y018793D01*
X022183Y018751D01*
X022100Y018751D01*
X022225Y018642D02*
X022225Y018475D01*
X022225Y018558D02*
X021975Y018558D01*
X022058Y018475D01*
X022100Y017868D02*
X022183Y017868D01*
X022225Y017826D01*
X022225Y017743D01*
X022183Y017701D01*
X022100Y017701D02*
X022058Y017785D01*
X022058Y017826D01*
X022100Y017868D01*
X021975Y017868D02*
X021975Y017701D01*
X022100Y017701D01*
X022225Y017592D02*
X022225Y017425D01*
X022225Y017508D02*
X021975Y017508D01*
X022058Y017425D01*
X022100Y016868D02*
X022100Y016701D01*
X021975Y016826D01*
X022225Y016826D01*
X022225Y016592D02*
X022225Y016425D01*
X022225Y016508D02*
X021975Y016508D01*
X022058Y016425D01*
X022058Y015868D02*
X022016Y015868D01*
X021975Y015826D01*
X021975Y015743D01*
X022016Y015701D01*
X022100Y015785D02*
X022100Y015826D01*
X022142Y015868D01*
X022183Y015868D01*
X022225Y015826D01*
X022225Y015743D01*
X022183Y015701D01*
X022225Y015592D02*
X022225Y015425D01*
X022225Y015508D02*
X021975Y015508D01*
X022058Y015425D01*
X022100Y015826D02*
X022058Y015868D01*
X022058Y014918D02*
X022016Y014918D01*
X021975Y014876D01*
X021975Y014793D01*
X022016Y014751D01*
X022058Y014918D02*
X022225Y014751D01*
X022225Y014918D01*
X022225Y014642D02*
X022225Y014475D01*
X022225Y014558D02*
X021975Y014558D01*
X022058Y014475D01*
X022225Y013918D02*
X022225Y013751D01*
X022225Y013835D02*
X021975Y013835D01*
X022058Y013751D01*
X022225Y013642D02*
X022225Y013475D01*
X022225Y013558D02*
X021975Y013558D01*
X022058Y013475D01*
X022016Y012918D02*
X022183Y012751D01*
X022225Y012793D01*
X022225Y012876D01*
X022183Y012918D01*
X022016Y012918D01*
X021975Y012876D01*
X021975Y012793D01*
X022016Y012751D01*
X022183Y012751D01*
X022225Y012642D02*
X022225Y012475D01*
X022225Y012558D02*
X021975Y012558D01*
X022058Y012475D01*
X018924Y017225D02*
X018840Y017225D01*
X018799Y017267D01*
X018799Y017350D02*
X018882Y017392D01*
X018924Y017392D01*
X018966Y017350D01*
X018966Y017267D01*
X018924Y017225D01*
X018799Y017350D02*
X018799Y017475D01*
X018966Y017475D01*
X018689Y017434D02*
X018689Y017350D01*
X018648Y017308D01*
X018523Y017308D01*
X018606Y017308D02*
X018689Y017225D01*
X018523Y017225D02*
X018523Y017475D01*
X018648Y017475D01*
X018689Y017434D01*
X018413Y017434D02*
X018371Y017475D01*
X018288Y017475D01*
X018246Y017434D01*
X018246Y017267D01*
X018288Y017225D01*
X018371Y017225D01*
X018413Y017267D01*
X018413Y017434D01*
X018137Y017434D02*
X018095Y017475D01*
X018012Y017475D01*
X017970Y017434D01*
X017970Y017392D01*
X018012Y017350D01*
X018095Y017350D01*
X018137Y017308D01*
X018137Y017267D01*
X018095Y017225D01*
X018012Y017225D01*
X017970Y017267D01*
X017861Y017225D02*
X017861Y017475D01*
X017694Y017475D02*
X017861Y017225D01*
X017694Y017225D02*
X017694Y017475D01*
X017584Y017475D02*
X017418Y017475D01*
X017418Y017225D01*
X017584Y017225D01*
X017501Y017350D02*
X017418Y017350D01*
X017308Y017308D02*
X017308Y017267D01*
X017266Y017225D01*
X017183Y017225D01*
X017141Y017267D01*
X017183Y017350D02*
X017266Y017350D01*
X017308Y017308D01*
X017308Y017434D02*
X017266Y017475D01*
X017183Y017475D01*
X017141Y017434D01*
X017141Y017392D01*
X017183Y017350D01*
X002675Y017508D02*
X002592Y017592D01*
X002425Y017592D01*
X002466Y017701D02*
X002633Y017701D01*
X002675Y017743D01*
X002675Y017826D01*
X002633Y017868D01*
X002466Y017868D01*
X002425Y017826D01*
X002425Y017743D01*
X002466Y017701D01*
X002425Y017425D02*
X002592Y017425D01*
X002675Y017508D01*
X002633Y017977D02*
X002425Y017977D01*
X002425Y018144D02*
X002633Y018144D01*
X002675Y018103D01*
X002675Y018019D01*
X002633Y017977D01*
X002425Y018254D02*
X002425Y018421D01*
X002425Y018337D02*
X002675Y018337D01*
X002633Y018775D02*
X002466Y018775D01*
X002425Y018817D01*
X002425Y018900D01*
X002466Y018942D01*
X002550Y018942D02*
X002550Y018858D01*
X002550Y018942D02*
X002633Y018942D01*
X002675Y018900D01*
X002675Y018817D01*
X002633Y018775D01*
X002675Y019051D02*
X002425Y019051D01*
X002675Y019218D01*
X002425Y019218D01*
X002425Y019327D02*
X002425Y019453D01*
X002466Y019494D01*
X002633Y019494D01*
X002675Y019453D01*
X002675Y019327D01*
X002425Y019327D01*
X002425Y019875D02*
X002592Y019875D01*
X002675Y019958D01*
X002592Y020042D01*
X002425Y020042D01*
X002425Y020151D02*
X002425Y020235D01*
X002425Y020193D02*
X002675Y020193D01*
X002675Y020151D02*
X002675Y020235D01*
X002675Y020335D02*
X002425Y020335D01*
X002675Y020502D01*
X002425Y020502D01*
X002425Y022825D02*
X002592Y022825D01*
X002675Y022908D01*
X002592Y022992D01*
X002425Y022992D01*
X002466Y023101D02*
X002633Y023101D01*
X002675Y023143D01*
X002675Y023226D01*
X002633Y023268D01*
X002466Y023268D01*
X002425Y023226D01*
X002425Y023143D01*
X002466Y023101D01*
X002425Y023377D02*
X002633Y023377D01*
X002675Y023419D01*
X002675Y023503D01*
X002633Y023544D01*
X002425Y023544D01*
X002425Y023654D02*
X002425Y023821D01*
X002425Y023737D02*
X002675Y023737D01*
X002633Y024175D02*
X002466Y024175D01*
X002425Y024217D01*
X002425Y024300D01*
X002466Y024342D01*
X002550Y024342D02*
X002550Y024258D01*
X002550Y024342D02*
X002633Y024342D01*
X002675Y024300D01*
X002675Y024217D01*
X002633Y024175D01*
X002675Y024451D02*
X002425Y024451D01*
X002675Y024618D01*
X002425Y024618D01*
X002425Y024727D02*
X002425Y024853D01*
X002466Y024894D01*
X002633Y024894D01*
X002675Y024853D01*
X002675Y024727D01*
X002425Y024727D01*
X002425Y025275D02*
X002592Y025275D01*
X002675Y025358D01*
X002592Y025442D01*
X002425Y025442D01*
X002425Y025551D02*
X002425Y025635D01*
X002425Y025593D02*
X002675Y025593D01*
X002675Y025551D02*
X002675Y025635D01*
X002675Y025735D02*
X002425Y025735D01*
X002675Y025902D01*
X002425Y025902D01*
X002425Y015102D02*
X002675Y015102D01*
X002425Y014935D01*
X002675Y014935D01*
X002675Y014835D02*
X002675Y014751D01*
X002675Y014793D02*
X002425Y014793D01*
X002425Y014751D02*
X002425Y014835D01*
X002425Y014642D02*
X002592Y014642D01*
X002675Y014558D01*
X002592Y014475D01*
X002425Y014475D01*
X002466Y014094D02*
X002425Y014053D01*
X002425Y013927D01*
X002675Y013927D01*
X002675Y014053D01*
X002633Y014094D01*
X002466Y014094D01*
X002425Y013818D02*
X002675Y013818D01*
X002425Y013651D01*
X002675Y013651D01*
X002633Y013542D02*
X002550Y013542D01*
X002550Y013458D01*
X002633Y013375D02*
X002466Y013375D01*
X002425Y013417D01*
X002425Y013500D01*
X002466Y013542D01*
X002633Y013542D02*
X002675Y013500D01*
X002675Y013417D01*
X002633Y013375D01*
X002425Y013021D02*
X002425Y012854D01*
X002425Y012937D02*
X002675Y012937D01*
X002633Y012744D02*
X002425Y012744D01*
X002425Y012577D02*
X002633Y012577D01*
X002675Y012619D01*
X002675Y012703D01*
X002633Y012744D01*
X002633Y012468D02*
X002466Y012468D01*
X002425Y012426D01*
X002425Y012343D01*
X002466Y012301D01*
X002633Y012301D01*
X002675Y012343D01*
X002675Y012426D01*
X002633Y012468D01*
X002592Y012192D02*
X002425Y012192D01*
X002592Y012192D02*
X002675Y012108D01*
X002592Y012025D01*
X002425Y012025D01*
D13*
X002500Y015800D02*
X002502Y015813D01*
X002507Y015826D01*
X002516Y015837D01*
X002527Y015844D01*
X002540Y015849D01*
X002553Y015850D01*
X002567Y015847D01*
X002579Y015841D01*
X002589Y015832D01*
X002596Y015820D01*
X002600Y015807D01*
X002600Y015793D01*
X002596Y015780D01*
X002589Y015768D01*
X002579Y015759D01*
X002567Y015753D01*
X002553Y015750D01*
X002540Y015751D01*
X002527Y015756D01*
X002516Y015763D01*
X002507Y015774D01*
X002502Y015787D01*
X002500Y015800D01*
X002500Y021200D02*
X002502Y021213D01*
X002507Y021226D01*
X002516Y021237D01*
X002527Y021244D01*
X002540Y021249D01*
X002553Y021250D01*
X002567Y021247D01*
X002579Y021241D01*
X002589Y021232D01*
X002596Y021220D01*
X002600Y021207D01*
X002600Y021193D01*
X002596Y021180D01*
X002589Y021168D01*
X002579Y021159D01*
X002567Y021153D01*
X002553Y021150D01*
X002540Y021151D01*
X002527Y021156D01*
X002516Y021163D01*
X002507Y021174D01*
X002502Y021187D01*
X002500Y021200D01*
X002500Y026600D02*
X002502Y026613D01*
X002507Y026626D01*
X002516Y026637D01*
X002527Y026644D01*
X002540Y026649D01*
X002553Y026650D01*
X002567Y026647D01*
X002579Y026641D01*
X002589Y026632D01*
X002596Y026620D01*
X002600Y026607D01*
X002600Y026593D01*
X002596Y026580D01*
X002589Y026568D01*
X002579Y026559D01*
X002567Y026553D01*
X002553Y026550D01*
X002540Y026551D01*
X002527Y026556D01*
X002516Y026563D01*
X002507Y026574D01*
X002502Y026587D01*
X002500Y026600D01*
X011050Y026600D02*
X011052Y026613D01*
X011057Y026626D01*
X011066Y026637D01*
X011077Y026644D01*
X011090Y026649D01*
X011103Y026650D01*
X011117Y026647D01*
X011129Y026641D01*
X011139Y026632D01*
X011146Y026620D01*
X011150Y026607D01*
X011150Y026593D01*
X011146Y026580D01*
X011139Y026568D01*
X011129Y026559D01*
X011117Y026553D01*
X011103Y026550D01*
X011090Y026551D01*
X011077Y026556D01*
X011066Y026563D01*
X011057Y026574D01*
X011052Y026587D01*
X011050Y026600D01*
X011050Y021200D02*
X011052Y021213D01*
X011057Y021226D01*
X011066Y021237D01*
X011077Y021244D01*
X011090Y021249D01*
X011103Y021250D01*
X011117Y021247D01*
X011129Y021241D01*
X011139Y021232D01*
X011146Y021220D01*
X011150Y021207D01*
X011150Y021193D01*
X011146Y021180D01*
X011139Y021168D01*
X011129Y021159D01*
X011117Y021153D01*
X011103Y021150D01*
X011090Y021151D01*
X011077Y021156D01*
X011066Y021163D01*
X011057Y021174D01*
X011052Y021187D01*
X011050Y021200D01*
X011050Y015800D02*
X011052Y015813D01*
X011057Y015826D01*
X011066Y015837D01*
X011077Y015844D01*
X011090Y015849D01*
X011103Y015850D01*
X011117Y015847D01*
X011129Y015841D01*
X011139Y015832D01*
X011146Y015820D01*
X011150Y015807D01*
X011150Y015793D01*
X011146Y015780D01*
X011139Y015768D01*
X011129Y015759D01*
X011117Y015753D01*
X011103Y015750D01*
X011090Y015751D01*
X011077Y015756D01*
X011066Y015763D01*
X011057Y015774D01*
X011052Y015787D01*
X011050Y015800D01*
D14*
X012000Y009750D02*
X012350Y009750D01*
X013350Y009750D01*
X013700Y009750D01*
X014050Y008950D02*
X014050Y008850D01*
X014150Y008850D01*
X014150Y008250D01*
X014050Y008250D01*
X014050Y008150D01*
X013700Y007350D02*
X013300Y007350D01*
X012350Y007350D01*
X012000Y007350D01*
X011650Y008150D02*
X011650Y008250D01*
X011550Y008250D01*
X011550Y008850D01*
X011650Y008850D01*
X011650Y008950D01*
X012750Y008550D02*
X012752Y008570D01*
X012758Y008588D01*
X012767Y008606D01*
X012779Y008621D01*
X012794Y008633D01*
X012812Y008642D01*
X012830Y008648D01*
X012850Y008650D01*
X012870Y008648D01*
X012888Y008642D01*
X012906Y008633D01*
X012921Y008621D01*
X012933Y008606D01*
X012942Y008588D01*
X012948Y008570D01*
X012950Y008550D01*
X012948Y008530D01*
X012942Y008512D01*
X012933Y008494D01*
X012921Y008479D01*
X012906Y008467D01*
X012888Y008458D01*
X012870Y008452D01*
X012850Y008450D01*
X012830Y008452D01*
X012812Y008458D01*
X012794Y008467D01*
X012779Y008479D01*
X012767Y008494D01*
X012758Y008512D01*
X012752Y008530D01*
X012750Y008550D01*
X012150Y008550D02*
X012152Y008602D01*
X012158Y008654D01*
X012168Y008706D01*
X012181Y008756D01*
X012198Y008806D01*
X012219Y008854D01*
X012244Y008900D01*
X012272Y008944D01*
X012303Y008986D01*
X012337Y009026D01*
X012374Y009063D01*
X012414Y009097D01*
X012456Y009128D01*
X012500Y009156D01*
X012546Y009181D01*
X012594Y009202D01*
X012644Y009219D01*
X012694Y009232D01*
X012746Y009242D01*
X012798Y009248D01*
X012850Y009250D01*
X012902Y009248D01*
X012954Y009242D01*
X013006Y009232D01*
X013056Y009219D01*
X013106Y009202D01*
X013154Y009181D01*
X013200Y009156D01*
X013244Y009128D01*
X013286Y009097D01*
X013326Y009063D01*
X013363Y009026D01*
X013397Y008986D01*
X013428Y008944D01*
X013456Y008900D01*
X013481Y008854D01*
X013502Y008806D01*
X013519Y008756D01*
X013532Y008706D01*
X013542Y008654D01*
X013548Y008602D01*
X013550Y008550D01*
X013548Y008498D01*
X013542Y008446D01*
X013532Y008394D01*
X013519Y008344D01*
X013502Y008294D01*
X013481Y008246D01*
X013456Y008200D01*
X013428Y008156D01*
X013397Y008114D01*
X013363Y008074D01*
X013326Y008037D01*
X013286Y008003D01*
X013244Y007972D01*
X013200Y007944D01*
X013154Y007919D01*
X013106Y007898D01*
X013056Y007881D01*
X013006Y007868D01*
X012954Y007858D01*
X012902Y007852D01*
X012850Y007850D01*
X012798Y007852D01*
X012746Y007858D01*
X012694Y007868D01*
X012644Y007881D01*
X012594Y007898D01*
X012546Y007919D01*
X012500Y007944D01*
X012456Y007972D01*
X012414Y008003D01*
X012374Y008037D01*
X012337Y008074D01*
X012303Y008114D01*
X012272Y008156D01*
X012244Y008200D01*
X012219Y008246D01*
X012198Y008294D01*
X012181Y008344D01*
X012168Y008394D01*
X012158Y008446D01*
X012152Y008498D01*
X012150Y008550D01*
X009400Y008900D02*
X009400Y007600D01*
X009398Y007577D01*
X009393Y007554D01*
X009384Y007532D01*
X009371Y007512D01*
X009356Y007494D01*
X009338Y007479D01*
X009318Y007466D01*
X009296Y007457D01*
X009273Y007452D01*
X009250Y007450D01*
X009000Y007450D01*
X008950Y007500D01*
X005850Y007500D01*
X005800Y007450D01*
X005550Y007450D01*
X005527Y007452D01*
X005504Y007457D01*
X005482Y007466D01*
X005462Y007479D01*
X005444Y007494D01*
X005429Y007512D01*
X005416Y007532D01*
X005407Y007554D01*
X005402Y007577D01*
X005400Y007600D01*
X005400Y008900D01*
X005402Y008923D01*
X005407Y008946D01*
X005416Y008968D01*
X005429Y008988D01*
X005444Y009006D01*
X005462Y009021D01*
X005482Y009034D01*
X005504Y009043D01*
X005527Y009048D01*
X005550Y009050D01*
X005800Y009050D01*
X005850Y009000D01*
X008950Y009000D01*
X009000Y009050D01*
X009250Y009050D01*
X009273Y009048D01*
X009296Y009043D01*
X009318Y009034D01*
X009338Y009021D01*
X009356Y009006D01*
X009371Y008988D01*
X009384Y008968D01*
X009393Y008946D01*
X009398Y008923D01*
X009400Y008900D01*
X002320Y008918D02*
X002263Y008862D01*
X002320Y008918D02*
X002320Y009032D01*
X002263Y009089D01*
X002207Y009089D01*
X002150Y009032D01*
X002150Y008975D01*
X002150Y009032D02*
X002093Y009089D01*
X002036Y009089D01*
X001980Y009032D01*
X001980Y008918D01*
X002036Y008862D01*
X001115Y009539D02*
X001115Y009596D01*
X001059Y009652D01*
X000775Y009652D01*
X000775Y009482D01*
X000832Y009426D01*
X000945Y009426D01*
X001002Y009482D01*
X001002Y009652D01*
X000945Y009284D02*
X000832Y009284D01*
X000775Y009227D01*
X000775Y009114D01*
X000832Y009057D01*
X000945Y009057D01*
X001002Y009114D01*
X001002Y009227D01*
X000945Y009284D01*
X001002Y008925D02*
X001002Y008812D01*
X001002Y008868D02*
X000662Y008868D01*
X000662Y008812D01*
X000832Y008670D02*
X001002Y008670D01*
X001002Y008500D01*
X000945Y008443D01*
X000889Y008500D01*
X000889Y008670D01*
X000832Y008670D02*
X000775Y008614D01*
X000775Y008500D01*
X000832Y008302D02*
X001002Y008302D01*
X000832Y008302D02*
X000775Y008245D01*
X000775Y008075D01*
X001002Y008075D01*
X001002Y007934D02*
X000775Y007934D01*
X000662Y007820D01*
X000775Y007707D01*
X001002Y007707D01*
X000832Y007707D02*
X000832Y007934D01*
X001980Y008032D02*
X002150Y007862D01*
X002150Y008089D01*
X002320Y008032D02*
X001980Y008032D01*
X001980Y007089D02*
X001980Y006862D01*
X002150Y006862D01*
X002093Y006975D01*
X002093Y007032D01*
X002150Y007089D01*
X002263Y007089D01*
X002320Y007032D01*
X002320Y006918D01*
X002263Y006862D01*
X002320Y009862D02*
X002093Y010089D01*
X002036Y010089D01*
X001980Y010032D01*
X001980Y009918D01*
X002036Y009862D01*
X002320Y009862D02*
X002320Y010089D01*
X002320Y010862D02*
X002320Y011089D01*
X002320Y010975D02*
X001980Y010975D01*
X002093Y010862D01*
X002036Y011862D02*
X001980Y011918D01*
X001980Y012032D01*
X002036Y012089D01*
X002263Y011862D01*
X002320Y011918D01*
X002320Y012032D01*
X002263Y012089D01*
X002036Y012089D01*
X002036Y011862D02*
X002263Y011862D01*
X001002Y010635D02*
X000832Y010635D01*
X000775Y010578D01*
X000775Y010408D01*
X001002Y010408D01*
X001002Y010276D02*
X001002Y010162D01*
X001002Y010219D02*
X000662Y010219D01*
X000662Y010162D02*
X000662Y010276D01*
X001980Y013466D02*
X002207Y013466D01*
X002320Y013579D01*
X002207Y013693D01*
X001980Y013693D01*
X002093Y013834D02*
X002093Y013891D01*
X002320Y013891D01*
X002320Y013834D02*
X002320Y013948D01*
X002320Y014080D02*
X002093Y014080D01*
X002093Y014250D01*
X002150Y014307D01*
X002320Y014307D01*
X001980Y013891D02*
X001923Y013891D01*
X002036Y014921D02*
X002263Y014921D01*
X002320Y014978D01*
X002320Y015091D01*
X002263Y015148D01*
X002150Y015148D01*
X002150Y015035D01*
X002036Y015148D02*
X001980Y015091D01*
X001980Y014978D01*
X002036Y014921D01*
X002093Y015289D02*
X002093Y015460D01*
X002150Y015516D01*
X002320Y015516D01*
X002263Y015658D02*
X002150Y015658D01*
X002093Y015714D01*
X002093Y015885D01*
X001980Y015885D02*
X002320Y015885D01*
X002320Y015714D01*
X002263Y015658D01*
X002320Y015289D02*
X002093Y015289D01*
X002150Y016561D02*
X002093Y016675D01*
X002093Y016732D01*
X002150Y016788D01*
X002263Y016788D01*
X002320Y016732D01*
X002320Y016618D01*
X002263Y016561D01*
X002150Y016561D02*
X001980Y016561D01*
X001980Y016788D01*
X002093Y016930D02*
X002320Y017043D01*
X002093Y017157D01*
X002036Y017661D02*
X001980Y017718D01*
X001980Y017832D01*
X002036Y017888D01*
X002093Y017888D01*
X002150Y017832D01*
X002207Y017888D01*
X002263Y017888D01*
X002320Y017832D01*
X002320Y017718D01*
X002263Y017661D01*
X002150Y017775D02*
X002150Y017832D01*
X002093Y018030D02*
X002320Y018143D01*
X002093Y018257D01*
X000920Y018479D02*
X000580Y018479D01*
X000580Y018649D01*
X000636Y018706D01*
X000750Y018706D01*
X000807Y018649D01*
X000807Y018479D01*
X000807Y018592D02*
X000920Y018706D01*
X000863Y018847D02*
X000920Y018904D01*
X000920Y019017D01*
X000863Y019074D01*
X000807Y019074D01*
X000750Y019017D01*
X000750Y018904D01*
X000693Y018847D01*
X000636Y018847D01*
X000580Y018904D01*
X000580Y019017D01*
X000636Y019074D01*
X000580Y019216D02*
X000580Y019443D01*
X000580Y019329D02*
X000920Y019329D01*
X001980Y019563D02*
X001980Y019677D01*
X001980Y019620D02*
X002320Y019620D01*
X002320Y019563D02*
X002320Y019677D01*
X002263Y019809D02*
X002320Y019865D01*
X002320Y019979D01*
X002263Y020036D01*
X002036Y020036D01*
X001980Y019979D01*
X001980Y019865D01*
X002036Y019809D01*
X002263Y019809D01*
X002207Y020177D02*
X002093Y020290D01*
X002093Y020347D01*
X002093Y020177D02*
X002320Y020177D01*
X019580Y020343D02*
X019920Y020343D01*
X019920Y020230D02*
X019920Y020457D01*
X019863Y020598D02*
X019920Y020655D01*
X019920Y020768D01*
X019863Y020825D01*
X019807Y020825D01*
X019750Y020768D01*
X019750Y020712D01*
X019750Y020768D02*
X019693Y020825D01*
X019636Y020825D01*
X019580Y020768D01*
X019580Y020655D01*
X019636Y020598D01*
X019580Y020343D02*
X019693Y020230D01*
X019693Y019825D02*
X019636Y019825D01*
X019580Y019768D01*
X019580Y019655D01*
X019636Y019598D01*
X019693Y019825D02*
X019920Y019598D01*
X019920Y019825D01*
X019920Y019457D02*
X019920Y019230D01*
X019920Y019343D02*
X019580Y019343D01*
X019693Y019230D01*
X019920Y018825D02*
X019920Y018598D01*
X019920Y018712D02*
X019580Y018712D01*
X019693Y018598D01*
X019920Y018457D02*
X019920Y018230D01*
X019920Y018343D02*
X019580Y018343D01*
X019693Y018230D01*
X019636Y017825D02*
X019863Y017598D01*
X019920Y017655D01*
X019920Y017768D01*
X019863Y017825D01*
X019636Y017825D01*
X019580Y017768D01*
X019580Y017655D01*
X019636Y017598D01*
X019863Y017598D01*
X019920Y017457D02*
X019920Y017230D01*
X019920Y017343D02*
X019580Y017343D01*
X019693Y017230D01*
X019636Y016657D02*
X019580Y016600D01*
X019580Y016487D01*
X019636Y016430D01*
X019693Y016430D01*
X019750Y016487D01*
X019750Y016657D01*
X019863Y016657D02*
X019636Y016657D01*
X019863Y016657D02*
X019920Y016600D01*
X019920Y016487D01*
X019863Y016430D01*
X019863Y015657D02*
X019807Y015657D01*
X019750Y015600D01*
X019750Y015487D01*
X019693Y015430D01*
X019636Y015430D01*
X019580Y015487D01*
X019580Y015600D01*
X019636Y015657D01*
X019693Y015657D01*
X019750Y015600D01*
X019750Y015487D02*
X019807Y015430D01*
X019863Y015430D01*
X019920Y015487D01*
X019920Y015600D01*
X019863Y015657D01*
X020923Y016617D02*
X020980Y016617D01*
X021093Y016617D02*
X021320Y016617D01*
X021320Y016561D02*
X021320Y016674D01*
X021263Y016806D02*
X021320Y016863D01*
X021320Y017033D01*
X021377Y017033D02*
X021093Y017033D01*
X021093Y016863D01*
X021150Y016806D01*
X021263Y016806D01*
X021433Y016920D02*
X021433Y016976D01*
X021377Y017033D01*
X021320Y017175D02*
X021320Y017288D01*
X021320Y017231D02*
X021093Y017231D01*
X021093Y017175D01*
X020980Y017231D02*
X020923Y017231D01*
X021093Y017420D02*
X021093Y017534D01*
X021036Y017477D02*
X021263Y017477D01*
X021320Y017534D01*
X021263Y017666D02*
X021207Y017722D01*
X021207Y017893D01*
X021150Y017893D02*
X021320Y017893D01*
X021320Y017722D01*
X021263Y017666D01*
X021093Y017722D02*
X021093Y017836D01*
X021150Y017893D01*
X021320Y018034D02*
X021320Y018147D01*
X021320Y018091D02*
X020980Y018091D01*
X020980Y018034D01*
X020980Y018648D02*
X020980Y018761D01*
X020980Y018705D02*
X021320Y018705D01*
X021320Y018761D02*
X021320Y018648D01*
X021320Y018893D02*
X020980Y019120D01*
X021036Y019262D02*
X021263Y019262D01*
X021320Y019318D01*
X021320Y019432D01*
X021263Y019489D01*
X021036Y019489D01*
X020980Y019432D01*
X020980Y019318D01*
X021036Y019262D01*
X021036Y021075D02*
X021263Y021075D01*
X021320Y021132D01*
X021320Y021245D01*
X021263Y021302D01*
X021150Y021302D01*
X021150Y021188D01*
X021036Y021075D02*
X020980Y021132D01*
X020980Y021245D01*
X021036Y021302D01*
X021093Y021443D02*
X021093Y021614D01*
X021150Y021670D01*
X021320Y021670D01*
X021263Y021812D02*
X021320Y021868D01*
X021320Y022039D01*
X020980Y022039D01*
X021093Y022039D02*
X021093Y021868D01*
X021150Y021812D01*
X021263Y021812D01*
X021320Y021443D02*
X021093Y021443D01*
X019920Y021980D02*
X019693Y021980D01*
X019580Y022093D01*
X019693Y022206D01*
X019920Y022206D01*
X019920Y022348D02*
X019580Y022348D01*
X019580Y022518D01*
X019636Y022575D01*
X019750Y022575D01*
X019807Y022518D01*
X019807Y022348D01*
X019807Y022461D02*
X019920Y022575D01*
X019863Y022716D02*
X019750Y022716D01*
X019693Y022773D01*
X019693Y022886D01*
X019750Y022943D01*
X019807Y022943D01*
X019807Y022716D01*
X019863Y022716D02*
X019920Y022773D01*
X019920Y022886D01*
X019920Y023141D02*
X019636Y023141D01*
X019580Y023198D01*
X019750Y023198D02*
X019750Y023084D01*
X019750Y022206D02*
X019750Y021980D01*
X020980Y023182D02*
X021036Y023125D01*
X021093Y023125D01*
X021150Y023182D01*
X021150Y023295D01*
X021207Y023352D01*
X021263Y023352D01*
X021320Y023295D01*
X021320Y023182D01*
X021263Y023125D01*
X020980Y023182D02*
X020980Y023295D01*
X021036Y023352D01*
X020980Y023493D02*
X020980Y023664D01*
X021036Y023720D01*
X021263Y023720D01*
X021320Y023664D01*
X021320Y023493D01*
X020980Y023493D01*
X021093Y023862D02*
X020980Y023975D01*
X021093Y024089D01*
X021320Y024089D01*
X021150Y024089D02*
X021150Y023862D01*
X021093Y023862D02*
X021320Y023862D01*
X019920Y024082D02*
X019863Y024025D01*
X019920Y024082D02*
X019920Y024195D01*
X019863Y024252D01*
X019807Y024252D01*
X019750Y024195D01*
X019750Y024082D01*
X019693Y024025D01*
X019636Y024025D01*
X019580Y024082D01*
X019580Y024195D01*
X019636Y024252D01*
X019636Y024393D02*
X019863Y024393D01*
X019920Y024450D01*
X019920Y024564D01*
X019863Y024620D01*
X019920Y024762D02*
X019920Y024989D01*
X019920Y024762D02*
X019580Y024762D01*
X019636Y024620D02*
X019580Y024564D01*
X019580Y024450D01*
X019636Y024393D01*
X021093Y016617D02*
X021093Y016561D01*
X021036Y016419D02*
X020980Y016363D01*
X020980Y016192D01*
X021320Y016192D01*
X021320Y016363D01*
X021263Y016419D01*
X021036Y016419D01*
X019636Y014057D02*
X019863Y013830D01*
X019920Y013830D01*
X019580Y013830D02*
X019580Y014057D01*
X019636Y014057D01*
X019580Y013057D02*
X019636Y012943D01*
X019750Y012830D01*
X019750Y013000D01*
X019807Y013057D01*
X019863Y013057D01*
X019920Y013000D01*
X019920Y012887D01*
X019863Y012830D01*
X019750Y012830D01*
X019750Y012057D02*
X019863Y012057D01*
X019920Y012000D01*
X019920Y011887D01*
X019863Y011830D01*
X019750Y011830D02*
X019693Y011943D01*
X019693Y012000D01*
X019750Y012057D01*
X019580Y012057D02*
X019580Y011830D01*
X019750Y011830D01*
X019750Y011057D02*
X019750Y010830D01*
X019580Y011000D01*
X019920Y011000D01*
X019863Y010057D02*
X019807Y010057D01*
X019750Y010000D01*
X019750Y009943D01*
X019750Y010000D02*
X019693Y010057D01*
X019636Y010057D01*
X019580Y010000D01*
X019580Y009887D01*
X019636Y009830D01*
X019863Y009830D02*
X019920Y009887D01*
X019920Y010000D01*
X019863Y010057D01*
X020923Y009631D02*
X020980Y009631D01*
X021093Y009631D02*
X021320Y009631D01*
X021320Y009575D02*
X021320Y009688D01*
X021263Y009877D02*
X021320Y009934D01*
X021263Y009877D02*
X021036Y009877D01*
X021093Y009820D02*
X021093Y009934D01*
X021093Y010122D02*
X021093Y010236D01*
X021150Y010293D01*
X021320Y010293D01*
X021320Y010122D01*
X021263Y010066D01*
X021207Y010122D01*
X021207Y010293D01*
X021320Y010434D02*
X021320Y010547D01*
X021320Y010491D02*
X020980Y010491D01*
X020980Y010434D01*
X020980Y011048D02*
X020980Y011161D01*
X020980Y011105D02*
X021320Y011105D01*
X021320Y011161D02*
X021320Y011048D01*
X021320Y011293D02*
X020980Y011520D01*
X021036Y011662D02*
X021263Y011662D01*
X021320Y011718D01*
X021320Y011832D01*
X021263Y011889D01*
X021036Y011889D01*
X020980Y011832D01*
X020980Y011718D01*
X021036Y011662D01*
X021093Y009631D02*
X021093Y009575D01*
X021093Y009433D02*
X021093Y009263D01*
X021150Y009206D01*
X021263Y009206D01*
X021320Y009263D01*
X021320Y009433D01*
X021377Y009433D02*
X021093Y009433D01*
X021377Y009433D02*
X021433Y009376D01*
X021433Y009320D01*
X021320Y009074D02*
X021320Y008961D01*
X021320Y009017D02*
X021093Y009017D01*
X021093Y008961D01*
X020980Y009017D02*
X020923Y009017D01*
X021036Y008819D02*
X020980Y008763D01*
X020980Y008592D01*
X021320Y008592D01*
X021320Y008763D01*
X021263Y008819D01*
X021036Y008819D01*
X019920Y008830D02*
X019693Y009057D01*
X019636Y009057D01*
X019580Y009000D01*
X019580Y008887D01*
X019636Y008830D01*
X019920Y008830D02*
X019920Y009057D01*
X019920Y008057D02*
X019920Y007830D01*
X019920Y007943D02*
X019580Y007943D01*
X019693Y007830D01*
X019636Y007057D02*
X019863Y006830D01*
X019920Y006887D01*
X019920Y007000D01*
X019863Y007057D01*
X019636Y007057D01*
X019580Y007000D01*
X019580Y006887D01*
X019636Y006830D01*
X019863Y006830D01*
D15*
X009455Y008250D03*
X005345Y008250D03*
D16*
X022802Y019686D02*
X023263Y019686D01*
X023263Y019993D01*
X023186Y020146D02*
X023263Y020223D01*
X023263Y020376D01*
X023186Y020453D01*
X023263Y020607D02*
X022802Y020607D01*
X022802Y020837D01*
X022879Y020913D01*
X023186Y020913D01*
X023263Y020837D01*
X023263Y020607D01*
X022879Y020453D02*
X022802Y020376D01*
X022802Y020223D01*
X022879Y020146D01*
X023186Y020146D01*
D17*
X013350Y009750D02*
X013350Y009650D01*
X012350Y009650D01*
X012350Y009750D01*
X012350Y007450D02*
X012350Y007350D01*
X012350Y007450D02*
X013300Y007450D01*
X013300Y007350D01*
M02*
