G75*
G70*
%OFA0B0*%
%FSLAX24Y24*%
%IPPOS*%
%LPD*%
%AMOC8*
5,1,8,0,0,1.08239X$1,22.5*
%
%ADD10OC8,0.0540*%
%ADD11C,0.0700*%
%ADD12OC8,0.0660*%
%ADD13C,0.0600*%
%ADD14C,0.0740*%
%ADD15C,0.0130*%
%ADD16C,0.0270*%
D10*
X004900Y008250D03*
X009900Y008250D03*
D11*
X016400Y008625D03*
X017400Y008625D03*
X018400Y008625D03*
D12*
X020450Y009050D03*
X020450Y008050D03*
X020450Y007050D03*
X020450Y010050D03*
X020450Y011050D03*
X020450Y012050D03*
X020450Y013050D03*
X020450Y014050D03*
X020450Y015650D03*
X020450Y016650D03*
X020450Y017650D03*
X020450Y018650D03*
X020450Y019650D03*
X020450Y020650D03*
X020450Y021650D03*
X020450Y022650D03*
X020450Y023650D03*
X020450Y024650D03*
X001450Y021050D03*
X001450Y020050D03*
X001450Y019050D03*
X001450Y018050D03*
X001450Y017050D03*
X001450Y016050D03*
X001450Y015050D03*
X001450Y014050D03*
X001450Y012050D03*
X001450Y011050D03*
X001450Y010050D03*
X001450Y009050D03*
X001450Y008050D03*
X001450Y007050D03*
D13*
X011270Y007660D02*
X011870Y007660D01*
X011870Y009440D02*
X011270Y009440D01*
X013830Y009440D02*
X014430Y009440D01*
X014430Y007660D02*
X013830Y007660D01*
X022714Y007666D02*
X023314Y007666D01*
X023414Y008666D02*
X022814Y008666D01*
X022714Y009666D02*
X023314Y009666D01*
X023414Y010666D02*
X022814Y010666D01*
X022714Y011666D02*
X023314Y011666D01*
X023414Y012666D02*
X022814Y012666D01*
X022714Y013666D02*
X023314Y013666D01*
X023414Y014666D02*
X022814Y014666D01*
X022714Y015666D02*
X023314Y015666D01*
X023414Y016666D02*
X022814Y016666D01*
X022714Y017666D02*
X023314Y017666D01*
X023414Y018666D02*
X022814Y018666D01*
X022814Y006666D02*
X023414Y006666D01*
X023314Y005666D02*
X022714Y005666D01*
X022814Y004666D02*
X023414Y004666D01*
X023314Y003666D02*
X022714Y003666D01*
D14*
X021500Y003720D02*
X021500Y002980D01*
X020500Y002980D02*
X020500Y003720D01*
X019500Y003720D02*
X019500Y002980D01*
X018500Y002980D02*
X018500Y003720D01*
X016950Y003820D02*
X016950Y003080D01*
X015950Y003080D02*
X015950Y003820D01*
X014950Y003820D02*
X014950Y003080D01*
X013950Y003080D02*
X013950Y003820D01*
X012250Y003770D02*
X012250Y003030D01*
X011250Y003030D02*
X011250Y003770D01*
X010250Y003770D02*
X010250Y003030D01*
X009250Y003030D02*
X009250Y003770D01*
X005700Y003770D02*
X005700Y003030D01*
X004700Y003030D02*
X004700Y003770D01*
X003700Y003770D02*
X003700Y003030D01*
D15*
X000715Y000765D02*
X000715Y005918D01*
X003065Y003568D01*
X003065Y002904D01*
X003162Y002670D01*
X003340Y002492D01*
X003574Y002395D01*
X003826Y002395D01*
X004060Y002492D01*
X004200Y002632D01*
X004340Y002492D01*
X004574Y002395D01*
X004826Y002395D01*
X005060Y002492D01*
X005200Y002632D01*
X005340Y002492D01*
X005574Y002395D01*
X005826Y002395D01*
X006060Y002492D01*
X006238Y002670D01*
X006335Y002904D01*
X006335Y003896D01*
X006238Y004130D01*
X006060Y004308D01*
X006030Y004321D01*
X006030Y004370D01*
X008920Y004370D01*
X008920Y004321D01*
X008890Y004308D01*
X008712Y004130D01*
X008615Y003896D01*
X008615Y002904D01*
X008712Y002670D01*
X008890Y002492D01*
X009124Y002395D01*
X009376Y002395D01*
X009610Y002492D01*
X009750Y002632D01*
X009890Y002492D01*
X010124Y002395D01*
X010376Y002395D01*
X010610Y002492D01*
X010750Y002632D01*
X010890Y002492D01*
X011124Y002395D01*
X011376Y002395D01*
X011610Y002492D01*
X011788Y002670D01*
X011811Y002724D01*
X011842Y002681D01*
X011901Y002622D01*
X011970Y002572D01*
X012045Y002534D01*
X012125Y002508D01*
X012205Y002495D01*
X012205Y003355D01*
X012295Y003355D01*
X012295Y003445D01*
X012205Y003445D01*
X012205Y004305D01*
X012125Y004292D01*
X012045Y004266D01*
X011970Y004228D01*
X011901Y004178D01*
X011842Y004119D01*
X011811Y004076D01*
X011788Y004130D01*
X011610Y004308D01*
X011461Y004370D01*
X013618Y004370D01*
X013590Y004358D01*
X013412Y004180D01*
X013315Y003946D01*
X013315Y002954D01*
X013412Y002720D01*
X013590Y002542D01*
X012471Y002542D01*
X012455Y002534D02*
X012530Y002572D01*
X012599Y002622D01*
X012658Y002681D01*
X012708Y002750D01*
X012746Y002825D01*
X012772Y002905D01*
X012785Y002988D01*
X012785Y003355D01*
X012295Y003355D01*
X012295Y002495D01*
X012375Y002508D01*
X012455Y002534D01*
X012295Y002542D02*
X012205Y002542D01*
X012205Y002671D02*
X012295Y002671D01*
X012295Y002799D02*
X012205Y002799D01*
X012205Y002928D02*
X012295Y002928D01*
X012295Y003056D02*
X012205Y003056D01*
X012205Y003185D02*
X012295Y003185D01*
X012295Y003313D02*
X012205Y003313D01*
X012295Y003442D02*
X013315Y003442D01*
X013315Y003570D02*
X012785Y003570D01*
X012785Y003445D02*
X012785Y003812D01*
X012772Y003895D01*
X012746Y003975D01*
X012708Y004050D01*
X012658Y004119D01*
X012599Y004178D01*
X012530Y004228D01*
X012455Y004266D01*
X012375Y004292D01*
X012295Y004305D01*
X012295Y003445D01*
X012785Y003445D01*
X012785Y003313D02*
X013315Y003313D01*
X013315Y003185D02*
X012785Y003185D01*
X012785Y003056D02*
X013315Y003056D01*
X013326Y002928D02*
X012775Y002928D01*
X012733Y002799D02*
X013379Y002799D01*
X013461Y002671D02*
X012647Y002671D01*
X012029Y002542D02*
X011660Y002542D01*
X011788Y002671D02*
X011853Y002671D01*
X011421Y002414D02*
X018208Y002414D01*
X018140Y002442D02*
X018374Y002345D01*
X018626Y002345D01*
X018860Y002442D01*
X019000Y002582D01*
X019140Y002442D01*
X019374Y002345D01*
X019626Y002345D01*
X019860Y002442D01*
X020000Y002582D01*
X020140Y002442D01*
X020374Y002345D01*
X020626Y002345D01*
X020860Y002442D01*
X021038Y002620D01*
X021061Y002674D01*
X021092Y002631D01*
X021151Y002572D01*
X021220Y002522D01*
X021295Y002484D01*
X021375Y002458D01*
X021455Y002445D01*
X021455Y003305D01*
X021545Y003305D01*
X021545Y003395D01*
X021455Y003395D01*
X021455Y004255D01*
X021375Y004242D01*
X021295Y004216D01*
X021220Y004178D01*
X021151Y004128D01*
X021092Y004069D01*
X021061Y004026D01*
X021038Y004080D01*
X020860Y004258D01*
X020673Y004336D01*
X022345Y004336D01*
X022494Y004187D01*
X022643Y004125D01*
X022605Y004119D01*
X022536Y004097D01*
X022470Y004063D01*
X022411Y004020D01*
X022359Y003969D01*
X022316Y003909D01*
X022283Y003844D01*
X022261Y003775D01*
X022249Y003702D01*
X022249Y003701D01*
X022979Y003701D01*
X022979Y003631D01*
X022249Y003631D01*
X022249Y003629D01*
X022261Y003557D01*
X022283Y003487D01*
X022316Y003422D01*
X022359Y003363D01*
X022411Y003311D01*
X022470Y003268D01*
X022536Y003235D01*
X022605Y003212D01*
X022678Y003201D01*
X022979Y003201D01*
X022979Y003631D01*
X023049Y003631D01*
X023049Y003701D01*
X023779Y003701D01*
X023779Y003702D01*
X023768Y003775D01*
X023745Y003844D01*
X023712Y003909D01*
X023669Y003969D01*
X023617Y004020D01*
X023558Y004063D01*
X023493Y004097D01*
X023480Y004101D01*
X023527Y004101D01*
X023734Y004187D01*
X023893Y004346D01*
X023979Y004553D01*
X023979Y004612D01*
X023985Y004618D01*
X023985Y000765D01*
X023303Y000765D01*
X023490Y000842D01*
X023703Y001055D01*
X023818Y001334D01*
X023818Y001635D01*
X023703Y001913D01*
X023490Y002126D01*
X023212Y002241D01*
X022910Y002241D01*
X022632Y002126D01*
X022419Y001913D01*
X022304Y001635D01*
X022304Y001334D01*
X022419Y001055D01*
X022632Y000842D01*
X022819Y000765D01*
X000715Y000765D01*
X000715Y000871D02*
X022603Y000871D01*
X022475Y001000D02*
X000715Y001000D01*
X000715Y001129D02*
X022389Y001129D01*
X022336Y001257D02*
X000715Y001257D01*
X000715Y001386D02*
X022304Y001386D01*
X022304Y001514D02*
X000715Y001514D01*
X000715Y001643D02*
X022307Y001643D01*
X022360Y001771D02*
X000715Y001771D01*
X000715Y001900D02*
X022414Y001900D01*
X022534Y002028D02*
X000715Y002028D01*
X000715Y002157D02*
X022706Y002157D01*
X023417Y002157D02*
X023985Y002157D01*
X023985Y002285D02*
X000715Y002285D01*
X000715Y002414D02*
X003529Y002414D01*
X003290Y002542D02*
X000715Y002542D01*
X000715Y002671D02*
X003162Y002671D01*
X003108Y002799D02*
X000715Y002799D01*
X000715Y002928D02*
X003065Y002928D01*
X003065Y003056D02*
X000715Y003056D01*
X000715Y003185D02*
X003065Y003185D01*
X003065Y003313D02*
X000715Y003313D01*
X000715Y003442D02*
X003065Y003442D01*
X003063Y003570D02*
X000715Y003570D01*
X000715Y003699D02*
X002935Y003699D01*
X002806Y003827D02*
X000715Y003827D01*
X000715Y003956D02*
X002678Y003956D01*
X002549Y004084D02*
X000715Y004084D01*
X000715Y004213D02*
X002421Y004213D01*
X002292Y004341D02*
X000715Y004341D01*
X000715Y004470D02*
X002164Y004470D01*
X002035Y004598D02*
X000715Y004598D01*
X000715Y004727D02*
X001907Y004727D01*
X001778Y004855D02*
X000715Y004855D01*
X000715Y004984D02*
X001650Y004984D01*
X001521Y005112D02*
X000715Y005112D01*
X000715Y005241D02*
X001393Y005241D01*
X001264Y005369D02*
X000715Y005369D01*
X000715Y005498D02*
X001136Y005498D01*
X001007Y005626D02*
X000715Y005626D01*
X000715Y005755D02*
X000879Y005755D01*
X000750Y005883D02*
X000715Y005883D01*
X000800Y006300D02*
X003700Y003400D01*
X004200Y004168D02*
X004060Y004308D01*
X003826Y004405D01*
X003574Y004405D01*
X003340Y004308D01*
X003299Y004267D01*
X001130Y006437D01*
X001130Y006529D01*
X001204Y006455D01*
X001696Y006455D01*
X002045Y006804D01*
X002045Y007296D01*
X001791Y007550D01*
X002045Y007804D01*
X002045Y008296D01*
X001791Y008550D01*
X002045Y008804D01*
X002045Y009296D01*
X001791Y009550D01*
X002045Y009804D01*
X002045Y010296D01*
X001791Y010550D01*
X002045Y010804D01*
X002045Y011296D01*
X001791Y011550D01*
X002045Y011804D01*
X002045Y012296D01*
X001696Y012645D01*
X001204Y012645D01*
X001130Y012571D01*
X001130Y013529D01*
X001204Y013455D01*
X001696Y013455D01*
X002045Y013804D01*
X002045Y014296D01*
X001721Y014621D01*
X002220Y014621D01*
X002220Y014493D02*
X001849Y014493D01*
X001721Y014621D02*
X001945Y014845D01*
X001945Y015017D01*
X001483Y015017D01*
X001483Y015083D01*
X001417Y015083D01*
X001417Y015545D01*
X001245Y015545D01*
X001130Y015430D01*
X001130Y015670D01*
X001245Y015555D01*
X001417Y015555D01*
X001417Y016017D01*
X001483Y016017D01*
X001483Y016083D01*
X001483Y016455D01*
X001417Y016455D01*
X001417Y016083D01*
X001483Y016083D01*
X001945Y016083D01*
X001945Y016238D01*
X002220Y015963D01*
X002220Y008384D01*
X002270Y008263D01*
X003588Y006945D01*
X003272Y006945D01*
X002943Y006809D01*
X002691Y006557D01*
X002555Y006228D01*
X002555Y005872D01*
X002691Y005543D01*
X002943Y005291D01*
X003272Y005155D01*
X003628Y005155D01*
X003957Y005291D01*
X004209Y005543D01*
X004345Y005872D01*
X004345Y006188D01*
X005370Y005163D01*
X005370Y004321D01*
X005340Y004308D01*
X005200Y004168D01*
X005060Y004308D01*
X004826Y004405D01*
X004574Y004405D01*
X004340Y004308D01*
X004200Y004168D01*
X004156Y004213D02*
X004244Y004213D01*
X004419Y004341D02*
X003981Y004341D01*
X003419Y004341D02*
X003226Y004341D01*
X003097Y004470D02*
X005370Y004470D01*
X005370Y004598D02*
X002969Y004598D01*
X002840Y004727D02*
X005370Y004727D01*
X005370Y004855D02*
X002712Y004855D01*
X002583Y004984D02*
X005370Y004984D01*
X005370Y005112D02*
X002455Y005112D01*
X002326Y005241D02*
X003066Y005241D01*
X002865Y005369D02*
X002198Y005369D01*
X002069Y005498D02*
X002737Y005498D01*
X002657Y005626D02*
X001941Y005626D01*
X001812Y005755D02*
X002604Y005755D01*
X002555Y005883D02*
X001684Y005883D01*
X001555Y006012D02*
X002555Y006012D01*
X002555Y006140D02*
X001427Y006140D01*
X001298Y006269D02*
X002572Y006269D01*
X002625Y006397D02*
X001170Y006397D01*
X001133Y006526D02*
X001130Y006526D01*
X000800Y006300D02*
X000800Y017400D01*
X001450Y018050D01*
X001035Y018476D02*
X000715Y018476D01*
X000715Y018348D02*
X000906Y018348D01*
X000855Y018296D02*
X000855Y017922D01*
X000715Y017782D01*
X000715Y026019D01*
X000943Y025791D01*
X001272Y025655D01*
X001628Y025655D01*
X001957Y025791D01*
X002209Y026043D01*
X002345Y026372D01*
X002345Y026728D01*
X002209Y027057D01*
X001957Y027309D01*
X001773Y027385D01*
X023985Y027385D01*
X023985Y017732D01*
X023837Y017880D01*
X023793Y017986D01*
X023634Y018145D01*
X023486Y018206D01*
X023523Y018212D01*
X023593Y018235D01*
X023658Y018268D01*
X023717Y018311D01*
X023769Y018363D01*
X023812Y018422D01*
X023845Y018487D01*
X023868Y018557D01*
X023879Y018629D01*
X023879Y018631D01*
X023149Y018631D01*
X023149Y018701D01*
X023079Y018701D01*
X023079Y019131D01*
X022778Y019131D01*
X022705Y019119D01*
X022636Y019097D01*
X022570Y019063D01*
X022511Y019020D01*
X022459Y018969D01*
X022416Y018909D01*
X022383Y018844D01*
X022361Y018775D01*
X022349Y018702D01*
X022349Y018701D01*
X023079Y018701D01*
X023079Y018631D01*
X022349Y018631D01*
X022349Y018629D01*
X022361Y018557D01*
X022383Y018487D01*
X022416Y018422D01*
X022459Y018363D01*
X022511Y018311D01*
X022570Y018268D01*
X022636Y018235D01*
X022648Y018231D01*
X022602Y018231D01*
X022394Y018145D01*
X022235Y017986D01*
X022149Y017778D01*
X022149Y017553D01*
X022235Y017346D01*
X022394Y017187D01*
X022495Y017145D01*
X022494Y017145D01*
X022335Y016986D01*
X022249Y016778D01*
X022249Y016553D01*
X022335Y016346D01*
X022494Y016187D01*
X022495Y016186D01*
X022394Y016145D01*
X022235Y015986D01*
X022149Y015778D01*
X022149Y015553D01*
X022235Y015346D01*
X022394Y015187D01*
X022495Y015145D01*
X022494Y015145D01*
X022335Y014986D01*
X022249Y014778D01*
X022249Y014553D01*
X022335Y014346D01*
X022494Y014187D01*
X022495Y014186D01*
X022394Y014145D01*
X022235Y013986D01*
X022149Y013778D01*
X022149Y013553D01*
X022235Y013346D01*
X022394Y013187D01*
X022495Y013145D01*
X022494Y013145D01*
X022335Y012986D01*
X022249Y012778D01*
X022249Y012553D01*
X022335Y012346D01*
X022494Y012187D01*
X022495Y012186D01*
X022394Y012145D01*
X022235Y011986D01*
X022149Y011778D01*
X022149Y011553D01*
X022235Y011346D01*
X022394Y011187D01*
X022495Y011145D01*
X022494Y011145D01*
X022335Y010986D01*
X022249Y010778D01*
X022249Y010553D01*
X022335Y010346D01*
X022494Y010187D01*
X022495Y010186D01*
X022394Y010145D01*
X022235Y009986D01*
X022149Y009778D01*
X022149Y009553D01*
X022235Y009346D01*
X022394Y009187D01*
X022495Y009145D01*
X022494Y009145D01*
X022335Y008986D01*
X022249Y008778D01*
X022249Y008553D01*
X022335Y008346D01*
X022494Y008187D01*
X022643Y008125D01*
X022605Y008119D01*
X022536Y008097D01*
X022470Y008063D01*
X022411Y008020D01*
X022359Y007969D01*
X022316Y007909D01*
X022283Y007844D01*
X022261Y007775D01*
X022249Y007702D01*
X022249Y007701D01*
X022979Y007701D01*
X022979Y007631D01*
X022249Y007631D01*
X022249Y007629D01*
X022261Y007557D01*
X022283Y007487D01*
X022316Y007422D01*
X022359Y007363D01*
X022411Y007311D01*
X022470Y007268D01*
X022536Y007235D01*
X022605Y007212D01*
X022643Y007206D01*
X022494Y007145D01*
X022335Y006986D01*
X022249Y006778D01*
X022249Y006553D01*
X022335Y006346D01*
X022494Y006187D01*
X022495Y006186D01*
X022394Y006145D01*
X022245Y005996D01*
X020571Y005996D01*
X019580Y006987D01*
X019580Y009116D01*
X019530Y009237D01*
X019030Y009737D01*
X018937Y009830D01*
X018816Y009880D01*
X017684Y009880D01*
X017563Y009830D01*
X017213Y009480D01*
X017120Y009387D01*
X017070Y009266D01*
X017070Y009154D01*
X017052Y009146D01*
X016879Y008973D01*
X016844Y008889D01*
X016840Y008895D01*
X016793Y008960D01*
X016735Y009018D01*
X016670Y009065D01*
X016598Y009102D01*
X016521Y009127D01*
X016441Y009140D01*
X016424Y009140D01*
X016424Y008649D01*
X016376Y008649D01*
X016376Y009140D01*
X016359Y009140D01*
X016279Y009127D01*
X016202Y009102D01*
X016130Y009065D01*
X016064Y009018D01*
X016007Y008960D01*
X015960Y008895D01*
X015923Y008823D01*
X015898Y008746D01*
X015885Y008666D01*
X015885Y008649D01*
X016376Y008649D01*
X016376Y008601D01*
X016424Y008601D01*
X016424Y008110D01*
X016441Y008110D01*
X016521Y008123D01*
X016598Y008148D01*
X016670Y008185D01*
X016735Y008232D01*
X016793Y008289D01*
X016840Y008355D01*
X016844Y008361D01*
X016879Y008277D01*
X017052Y008104D01*
X017278Y008010D01*
X017522Y008010D01*
X017748Y008104D01*
X017900Y008255D01*
X018052Y008104D01*
X018070Y008096D01*
X018070Y005030D01*
X006030Y005030D01*
X006030Y005366D01*
X005980Y005487D01*
X005887Y005580D01*
X002880Y008587D01*
X002880Y016166D01*
X002830Y016287D01*
X002737Y016380D01*
X002045Y017072D01*
X002045Y017296D01*
X001791Y017550D01*
X002045Y017804D01*
X002045Y018296D01*
X001791Y018550D01*
X001961Y018720D01*
X003813Y018720D01*
X004570Y017963D01*
X004570Y008677D01*
X004365Y008472D01*
X004365Y008028D01*
X004678Y007715D01*
X005122Y007715D01*
X005327Y007920D01*
X008863Y007920D01*
X009320Y007463D01*
X009413Y007370D01*
X009534Y007320D01*
X010811Y007320D01*
X010950Y007181D01*
X011158Y007095D01*
X011982Y007095D01*
X012190Y007181D01*
X012339Y007330D01*
X013361Y007330D01*
X013510Y007181D01*
X013718Y007095D01*
X014542Y007095D01*
X014750Y007181D01*
X014909Y007340D01*
X014995Y007548D01*
X014995Y007772D01*
X014909Y007980D01*
X014750Y008139D01*
X014542Y008225D01*
X013718Y008225D01*
X013510Y008139D01*
X013361Y007990D01*
X012339Y007990D01*
X012190Y008139D01*
X011982Y008225D01*
X011158Y008225D01*
X010950Y008139D01*
X010791Y007980D01*
X010387Y007980D01*
X010435Y008028D01*
X010435Y008472D01*
X010230Y008677D01*
X010230Y019766D01*
X010180Y019887D01*
X010087Y019980D01*
X009737Y020330D01*
X009616Y020380D01*
X001961Y020380D01*
X001791Y020550D01*
X002045Y020804D01*
X002045Y021296D01*
X001696Y021645D01*
X001204Y021645D01*
X000855Y021296D01*
X000855Y020804D01*
X001109Y020550D01*
X000855Y020296D01*
X000855Y019804D01*
X001109Y019550D01*
X000855Y019296D01*
X000855Y018804D01*
X001109Y018550D01*
X000855Y018296D01*
X000855Y018219D02*
X000715Y018219D01*
X000715Y018091D02*
X000855Y018091D01*
X000855Y017962D02*
X000715Y017962D01*
X000715Y017834D02*
X000767Y017834D01*
X001450Y017050D02*
X001600Y017050D01*
X002550Y016100D01*
X002550Y008450D01*
X005700Y005300D01*
X005700Y004700D01*
X009250Y004700D01*
X009250Y003400D01*
X008615Y003442D02*
X006335Y003442D01*
X006335Y003570D02*
X008615Y003570D01*
X008615Y003699D02*
X006335Y003699D01*
X006335Y003827D02*
X008615Y003827D01*
X008640Y003956D02*
X006310Y003956D01*
X006257Y004084D02*
X008693Y004084D01*
X008794Y004213D02*
X006156Y004213D01*
X006030Y004341D02*
X008920Y004341D01*
X009250Y004700D02*
X014000Y004700D01*
X013950Y004650D01*
X013950Y003450D01*
X013315Y003699D02*
X012785Y003699D01*
X012783Y003827D02*
X013315Y003827D01*
X013319Y003956D02*
X012752Y003956D01*
X012683Y004084D02*
X013372Y004084D01*
X013444Y004213D02*
X012551Y004213D01*
X012295Y004213D02*
X012205Y004213D01*
X012205Y004084D02*
X012295Y004084D01*
X012295Y003956D02*
X012205Y003956D01*
X012205Y003827D02*
X012295Y003827D01*
X012295Y003699D02*
X012205Y003699D01*
X012205Y003570D02*
X012295Y003570D01*
X011817Y004084D02*
X011807Y004084D01*
X011706Y004213D02*
X011949Y004213D01*
X011531Y004341D02*
X013573Y004341D01*
X014000Y004700D02*
X018400Y004700D01*
X018400Y004650D01*
X018400Y003450D01*
X018500Y003350D01*
X017865Y003313D02*
X017485Y003313D01*
X017485Y003405D02*
X016995Y003405D01*
X016995Y003495D01*
X016905Y003495D01*
X016905Y004355D01*
X016825Y004342D01*
X016745Y004316D01*
X016670Y004278D01*
X016601Y004228D01*
X016542Y004169D01*
X016511Y004126D01*
X016488Y004180D01*
X016310Y004358D01*
X016282Y004370D01*
X018070Y004370D01*
X018070Y004188D01*
X017962Y004080D01*
X017865Y003846D01*
X017865Y002854D01*
X017962Y002620D01*
X018140Y002442D01*
X018040Y002542D02*
X016310Y002542D01*
X016488Y002720D01*
X016511Y002774D01*
X016542Y002731D01*
X016601Y002672D01*
X016670Y002622D01*
X016745Y002584D01*
X016825Y002558D01*
X016905Y002545D01*
X016905Y003405D01*
X016995Y003405D01*
X016995Y002545D01*
X017075Y002558D01*
X017155Y002584D01*
X017230Y002622D01*
X017299Y002672D01*
X017358Y002731D01*
X017408Y002800D01*
X017446Y002875D01*
X017472Y002955D01*
X017485Y003038D01*
X017485Y003405D01*
X017485Y003495D02*
X017485Y003862D01*
X017472Y003945D01*
X017446Y004025D01*
X017408Y004100D01*
X017358Y004169D01*
X017299Y004228D01*
X017230Y004278D01*
X017155Y004316D01*
X017075Y004342D01*
X016995Y004355D01*
X016995Y003495D01*
X017485Y003495D01*
X017485Y003570D02*
X017865Y003570D01*
X017865Y003442D02*
X016995Y003442D01*
X016995Y003570D02*
X016905Y003570D01*
X016905Y003699D02*
X016995Y003699D01*
X016995Y003827D02*
X016905Y003827D01*
X016905Y003956D02*
X016995Y003956D01*
X016995Y004084D02*
X016905Y004084D01*
X016905Y004213D02*
X016995Y004213D01*
X016995Y004341D02*
X016905Y004341D01*
X016822Y004341D02*
X016327Y004341D01*
X016456Y004213D02*
X016586Y004213D01*
X017078Y004341D02*
X018070Y004341D01*
X018070Y004213D02*
X017314Y004213D01*
X017416Y004084D02*
X017966Y004084D01*
X017910Y003956D02*
X017469Y003956D01*
X017485Y003827D02*
X017865Y003827D01*
X017865Y003699D02*
X017485Y003699D01*
X016995Y003313D02*
X016905Y003313D01*
X016905Y003185D02*
X016995Y003185D01*
X016995Y003056D02*
X016905Y003056D01*
X016905Y002928D02*
X016995Y002928D01*
X016995Y002799D02*
X016905Y002799D01*
X016905Y002671D02*
X016995Y002671D01*
X017297Y002671D02*
X017941Y002671D01*
X017888Y002799D02*
X017407Y002799D01*
X017463Y002928D02*
X017865Y002928D01*
X017865Y003056D02*
X017485Y003056D01*
X017485Y003185D02*
X017865Y003185D01*
X018792Y002414D02*
X019208Y002414D01*
X019040Y002542D02*
X018960Y002542D01*
X019792Y002414D02*
X020208Y002414D01*
X020040Y002542D02*
X019960Y002542D01*
X020792Y002414D02*
X023985Y002414D01*
X023985Y002542D02*
X021807Y002542D01*
X021780Y002522D02*
X021849Y002572D01*
X021908Y002631D01*
X021958Y002700D01*
X021996Y002775D01*
X022022Y002855D01*
X022035Y002938D01*
X022035Y003305D01*
X021545Y003305D01*
X021545Y002445D01*
X021625Y002458D01*
X021705Y002484D01*
X021780Y002522D01*
X021936Y002671D02*
X023985Y002671D01*
X023985Y002799D02*
X022004Y002799D01*
X022033Y002928D02*
X023985Y002928D01*
X023985Y003056D02*
X022035Y003056D01*
X022035Y003185D02*
X023985Y003185D01*
X023985Y003313D02*
X023619Y003313D01*
X023617Y003311D02*
X023669Y003363D01*
X023712Y003422D01*
X023745Y003487D01*
X023768Y003557D01*
X023779Y003629D01*
X023779Y003631D01*
X023049Y003631D01*
X023049Y003201D01*
X023351Y003201D01*
X023423Y003212D01*
X023493Y003235D01*
X023558Y003268D01*
X023617Y003311D01*
X023722Y003442D02*
X023985Y003442D01*
X023985Y003570D02*
X023770Y003570D01*
X023985Y003699D02*
X023049Y003699D01*
X022979Y003699D02*
X022035Y003699D01*
X022035Y003762D02*
X022022Y003845D01*
X021996Y003925D01*
X021958Y004000D01*
X021908Y004069D01*
X021849Y004128D01*
X021780Y004178D01*
X021705Y004216D01*
X021625Y004242D01*
X021545Y004255D01*
X021545Y003395D01*
X022035Y003395D01*
X022035Y003762D01*
X022025Y003827D02*
X022278Y003827D01*
X022350Y003956D02*
X021980Y003956D01*
X021893Y004084D02*
X022511Y004084D01*
X022468Y004213D02*
X021712Y004213D01*
X021545Y004213D02*
X021455Y004213D01*
X021455Y004084D02*
X021545Y004084D01*
X021545Y003956D02*
X021455Y003956D01*
X021455Y003827D02*
X021545Y003827D01*
X021545Y003699D02*
X021455Y003699D01*
X021455Y003570D02*
X021545Y003570D01*
X021545Y003442D02*
X021455Y003442D01*
X021545Y003313D02*
X022409Y003313D01*
X022307Y003442D02*
X022035Y003442D01*
X022035Y003570D02*
X022259Y003570D01*
X022979Y003570D02*
X023049Y003570D01*
X023049Y003442D02*
X022979Y003442D01*
X022979Y003313D02*
X023049Y003313D01*
X023751Y003827D02*
X023985Y003827D01*
X023985Y003956D02*
X023678Y003956D01*
X023518Y004084D02*
X023985Y004084D01*
X023985Y004213D02*
X023760Y004213D01*
X023888Y004341D02*
X023985Y004341D01*
X023985Y004470D02*
X023944Y004470D01*
X023979Y004598D02*
X023985Y004598D01*
X023900Y005000D02*
X023566Y004666D01*
X023114Y004666D01*
X018416Y004666D01*
X018400Y004650D01*
X018400Y004700D02*
X018400Y008625D01*
X018841Y008196D02*
X018920Y008196D01*
X018920Y008275D02*
X018920Y006784D01*
X018970Y006663D01*
X019063Y006570D01*
X020247Y005386D01*
X020369Y005336D01*
X022245Y005336D01*
X022394Y005187D01*
X022495Y005145D01*
X022494Y005145D01*
X022345Y004996D01*
X018730Y004996D01*
X018730Y008096D01*
X018748Y008104D01*
X018920Y008275D01*
X018920Y008068D02*
X018730Y008068D01*
X018730Y007939D02*
X018920Y007939D01*
X018920Y007811D02*
X018730Y007811D01*
X018730Y007682D02*
X018920Y007682D01*
X018920Y007554D02*
X018730Y007554D01*
X018730Y007425D02*
X018920Y007425D01*
X018920Y007297D02*
X018730Y007297D01*
X018730Y007168D02*
X018920Y007168D01*
X018920Y007040D02*
X018730Y007040D01*
X018730Y006911D02*
X018920Y006911D01*
X018921Y006783D02*
X018730Y006783D01*
X018730Y006654D02*
X018979Y006654D01*
X019108Y006526D02*
X018730Y006526D01*
X018730Y006397D02*
X019236Y006397D01*
X019365Y006269D02*
X018730Y006269D01*
X018730Y006140D02*
X019493Y006140D01*
X019622Y006012D02*
X018730Y006012D01*
X018730Y005883D02*
X019750Y005883D01*
X019879Y005755D02*
X018730Y005755D01*
X018730Y005626D02*
X020007Y005626D01*
X020136Y005498D02*
X018730Y005498D01*
X018730Y005369D02*
X020288Y005369D01*
X020434Y005666D02*
X019250Y006850D01*
X019250Y009050D01*
X018750Y009550D01*
X017750Y009550D01*
X017400Y009200D01*
X017400Y008625D01*
X017841Y008196D02*
X017959Y008196D01*
X018070Y008068D02*
X017661Y008068D01*
X018070Y007939D02*
X014926Y007939D01*
X014979Y007811D02*
X018070Y007811D01*
X018070Y007682D02*
X014995Y007682D01*
X014995Y007554D02*
X018070Y007554D01*
X018070Y007425D02*
X014944Y007425D01*
X014866Y007297D02*
X018070Y007297D01*
X018070Y007168D02*
X014719Y007168D01*
X014628Y006945D02*
X014957Y006809D01*
X015209Y006557D01*
X015345Y006228D01*
X015345Y005872D01*
X015209Y005543D01*
X014957Y005291D01*
X014628Y005155D01*
X014272Y005155D01*
X013943Y005291D01*
X013691Y005543D01*
X013555Y005872D01*
X013555Y006228D01*
X013691Y006557D01*
X013943Y006809D01*
X014272Y006945D01*
X014628Y006945D01*
X014710Y006911D02*
X018070Y006911D01*
X018070Y006783D02*
X014983Y006783D01*
X015112Y006654D02*
X018070Y006654D01*
X018070Y006526D02*
X015222Y006526D01*
X015275Y006397D02*
X018070Y006397D01*
X018070Y006269D02*
X015328Y006269D01*
X015345Y006140D02*
X018070Y006140D01*
X018070Y006012D02*
X015345Y006012D01*
X015345Y005883D02*
X018070Y005883D01*
X018070Y005755D02*
X015296Y005755D01*
X015243Y005626D02*
X018070Y005626D01*
X018070Y005498D02*
X015163Y005498D01*
X015035Y005369D02*
X018070Y005369D01*
X018070Y005241D02*
X014834Y005241D01*
X014066Y005241D02*
X006030Y005241D01*
X006029Y005369D02*
X013865Y005369D01*
X013737Y005498D02*
X005969Y005498D01*
X005841Y005626D02*
X013657Y005626D01*
X013604Y005755D02*
X005712Y005755D01*
X005584Y005883D02*
X013555Y005883D01*
X013555Y006012D02*
X005455Y006012D01*
X005327Y006140D02*
X013555Y006140D01*
X013572Y006269D02*
X005198Y006269D01*
X005070Y006397D02*
X013625Y006397D01*
X013678Y006526D02*
X004941Y006526D01*
X004813Y006654D02*
X013788Y006654D01*
X013917Y006783D02*
X004684Y006783D01*
X004556Y006911D02*
X014190Y006911D01*
X013541Y007168D02*
X012159Y007168D01*
X012306Y007297D02*
X013394Y007297D01*
X013438Y008068D02*
X012262Y008068D01*
X012052Y008196D02*
X013648Y008196D01*
X014130Y007660D02*
X011570Y007660D01*
X011410Y007650D01*
X009600Y007650D01*
X009000Y008250D01*
X004900Y008250D01*
X004900Y018100D01*
X003950Y019050D01*
X001450Y019050D01*
X001054Y018605D02*
X000715Y018605D01*
X000715Y018733D02*
X000926Y018733D01*
X000855Y018862D02*
X000715Y018862D01*
X000715Y018990D02*
X000855Y018990D01*
X000855Y019119D02*
X000715Y019119D01*
X000715Y019247D02*
X000855Y019247D01*
X000934Y019376D02*
X000715Y019376D01*
X000715Y019504D02*
X001063Y019504D01*
X001026Y019633D02*
X000715Y019633D01*
X000715Y019761D02*
X000898Y019761D01*
X000855Y019890D02*
X000715Y019890D01*
X000715Y020018D02*
X000855Y020018D01*
X000855Y020147D02*
X000715Y020147D01*
X000715Y020275D02*
X000855Y020275D01*
X000962Y020404D02*
X000715Y020404D01*
X000715Y020532D02*
X001091Y020532D01*
X000998Y020661D02*
X000715Y020661D01*
X000715Y020789D02*
X000870Y020789D01*
X000855Y020918D02*
X000715Y020918D01*
X000715Y021046D02*
X000855Y021046D01*
X000855Y021175D02*
X000715Y021175D01*
X000715Y021303D02*
X000862Y021303D01*
X000990Y021432D02*
X000715Y021432D01*
X000715Y021560D02*
X001119Y021560D01*
X001781Y021560D02*
X019955Y021560D01*
X019955Y021617D02*
X019955Y021445D01*
X020179Y021221D01*
X019855Y020896D01*
X019855Y020404D01*
X020109Y020150D01*
X019855Y019896D01*
X019855Y019404D01*
X020109Y019150D01*
X019855Y018896D01*
X019855Y018404D01*
X020109Y018150D01*
X019855Y017896D01*
X019855Y017404D01*
X020109Y017150D01*
X019855Y016896D01*
X019855Y016404D01*
X020109Y016150D01*
X019855Y015896D01*
X019855Y015404D01*
X020204Y015055D01*
X020696Y015055D01*
X021045Y015404D01*
X021045Y015896D01*
X020791Y016150D01*
X021045Y016404D01*
X021045Y016896D01*
X020791Y017150D01*
X021045Y017404D01*
X021045Y017896D01*
X020791Y018150D01*
X021045Y018404D01*
X021045Y018896D01*
X020791Y019150D01*
X021045Y019404D01*
X021045Y019896D01*
X020791Y020150D01*
X021045Y020404D01*
X021045Y020896D01*
X020721Y021221D01*
X020945Y021445D01*
X020945Y021617D01*
X020483Y021617D01*
X020483Y021683D01*
X020945Y021683D01*
X020945Y021855D01*
X020721Y022079D01*
X021045Y022404D01*
X021045Y022896D01*
X020791Y023150D01*
X021045Y023404D01*
X021045Y023896D01*
X020791Y024150D01*
X021045Y024404D01*
X021045Y024896D01*
X020740Y025201D01*
X020957Y025291D01*
X021209Y025543D01*
X021345Y025872D01*
X021345Y026228D01*
X021209Y026557D01*
X020957Y026809D01*
X020628Y026945D01*
X020272Y026945D01*
X019943Y026809D01*
X019691Y026557D01*
X019555Y026228D01*
X019555Y025872D01*
X019691Y025543D01*
X019943Y025291D01*
X020160Y025201D01*
X019855Y024896D01*
X019855Y024404D01*
X020109Y024150D01*
X019855Y023896D01*
X019855Y023404D01*
X020109Y023150D01*
X019855Y022896D01*
X019855Y022404D01*
X020179Y022079D01*
X019955Y021855D01*
X019955Y021683D01*
X020417Y021683D01*
X020417Y021617D01*
X019955Y021617D01*
X019955Y021689D02*
X000715Y021689D01*
X000715Y021817D02*
X019955Y021817D01*
X020046Y021946D02*
X000715Y021946D01*
X000715Y022074D02*
X020174Y022074D01*
X020056Y022203D02*
X000715Y022203D01*
X000715Y022331D02*
X019928Y022331D01*
X019855Y022460D02*
X000715Y022460D01*
X000715Y022588D02*
X019855Y022588D01*
X019855Y022717D02*
X000715Y022717D01*
X000715Y022845D02*
X019855Y022845D01*
X019932Y022974D02*
X000715Y022974D01*
X000715Y023102D02*
X020061Y023102D01*
X020028Y023231D02*
X000715Y023231D01*
X000715Y023359D02*
X019900Y023359D01*
X019855Y023488D02*
X000715Y023488D01*
X000715Y023616D02*
X019855Y023616D01*
X019855Y023745D02*
X000715Y023745D01*
X000715Y023873D02*
X019855Y023873D01*
X019960Y024002D02*
X000715Y024002D01*
X000715Y024130D02*
X020089Y024130D01*
X020000Y024259D02*
X000715Y024259D01*
X000715Y024387D02*
X019871Y024387D01*
X019855Y024516D02*
X000715Y024516D01*
X000715Y024644D02*
X019855Y024644D01*
X019855Y024773D02*
X000715Y024773D01*
X000715Y024901D02*
X019860Y024901D01*
X019988Y025030D02*
X000715Y025030D01*
X000715Y025158D02*
X020117Y025158D01*
X019955Y025287D02*
X000715Y025287D01*
X000715Y025415D02*
X019819Y025415D01*
X019691Y025544D02*
X000715Y025544D01*
X000715Y025672D02*
X001231Y025672D01*
X000934Y025801D02*
X000715Y025801D01*
X000715Y025929D02*
X000805Y025929D01*
X001669Y025672D02*
X019638Y025672D01*
X019585Y025801D02*
X001966Y025801D01*
X002095Y025929D02*
X019555Y025929D01*
X019555Y026058D02*
X002215Y026058D01*
X002268Y026186D02*
X019555Y026186D01*
X019591Y026315D02*
X002321Y026315D01*
X002345Y026443D02*
X019644Y026443D01*
X019706Y026572D02*
X002345Y026572D01*
X002345Y026700D02*
X019834Y026700D01*
X019991Y026829D02*
X002303Y026829D01*
X002250Y026957D02*
X023985Y026957D01*
X023985Y026829D02*
X020909Y026829D01*
X021066Y026700D02*
X023985Y026700D01*
X023985Y026572D02*
X021194Y026572D01*
X021256Y026443D02*
X023985Y026443D01*
X023985Y026315D02*
X021309Y026315D01*
X021345Y026186D02*
X023985Y026186D01*
X023985Y026058D02*
X021345Y026058D01*
X021345Y025929D02*
X023985Y025929D01*
X023985Y025801D02*
X021315Y025801D01*
X021262Y025672D02*
X023985Y025672D01*
X023985Y025544D02*
X021209Y025544D01*
X021081Y025415D02*
X023985Y025415D01*
X023985Y025287D02*
X020945Y025287D01*
X020783Y025158D02*
X023985Y025158D01*
X023985Y025030D02*
X020912Y025030D01*
X021040Y024901D02*
X023985Y024901D01*
X023985Y024773D02*
X021045Y024773D01*
X021045Y024644D02*
X023985Y024644D01*
X023985Y024516D02*
X021045Y024516D01*
X021029Y024387D02*
X023985Y024387D01*
X023985Y024259D02*
X020900Y024259D01*
X020811Y024130D02*
X023985Y024130D01*
X023985Y024002D02*
X020940Y024002D01*
X021045Y023873D02*
X023985Y023873D01*
X023985Y023745D02*
X021045Y023745D01*
X021045Y023616D02*
X023985Y023616D01*
X023985Y023488D02*
X021045Y023488D01*
X021000Y023359D02*
X023985Y023359D01*
X023985Y023231D02*
X020872Y023231D01*
X020839Y023102D02*
X023985Y023102D01*
X023985Y022974D02*
X020968Y022974D01*
X021045Y022845D02*
X023985Y022845D01*
X023985Y022717D02*
X021045Y022717D01*
X021045Y022588D02*
X023985Y022588D01*
X023985Y022460D02*
X021045Y022460D01*
X020972Y022331D02*
X023985Y022331D01*
X023985Y022203D02*
X020844Y022203D01*
X020726Y022074D02*
X023985Y022074D01*
X023985Y021946D02*
X020854Y021946D01*
X020945Y021817D02*
X023985Y021817D01*
X023985Y021689D02*
X020945Y021689D01*
X020945Y021560D02*
X023985Y021560D01*
X023985Y021432D02*
X020932Y021432D01*
X020803Y021303D02*
X023985Y021303D01*
X023985Y021175D02*
X020767Y021175D01*
X020895Y021046D02*
X023985Y021046D01*
X023985Y020918D02*
X021024Y020918D01*
X021045Y020789D02*
X023985Y020789D01*
X023985Y020661D02*
X021045Y020661D01*
X021045Y020532D02*
X023985Y020532D01*
X023985Y020404D02*
X021045Y020404D01*
X020916Y020275D02*
X023985Y020275D01*
X023985Y020147D02*
X020795Y020147D01*
X020923Y020018D02*
X023985Y020018D01*
X023985Y019890D02*
X021045Y019890D01*
X021045Y019761D02*
X023985Y019761D01*
X023985Y019633D02*
X021045Y019633D01*
X021045Y019504D02*
X023985Y019504D01*
X023985Y019376D02*
X021017Y019376D01*
X020888Y019247D02*
X023985Y019247D01*
X023985Y019119D02*
X023525Y019119D01*
X023523Y019119D02*
X023451Y019131D01*
X023149Y019131D01*
X023149Y018701D01*
X023879Y018701D01*
X023879Y018702D01*
X023868Y018775D01*
X023845Y018844D01*
X023812Y018909D01*
X023769Y018969D01*
X023717Y019020D01*
X023658Y019063D01*
X023593Y019097D01*
X023523Y019119D01*
X023747Y018990D02*
X023985Y018990D01*
X023985Y018862D02*
X023836Y018862D01*
X023874Y018733D02*
X023985Y018733D01*
X023985Y018605D02*
X023875Y018605D01*
X023839Y018476D02*
X023985Y018476D01*
X023985Y018348D02*
X023754Y018348D01*
X023544Y018219D02*
X023985Y018219D01*
X023985Y018091D02*
X023688Y018091D01*
X023803Y017962D02*
X023985Y017962D01*
X023985Y017834D02*
X023883Y017834D01*
X023584Y017666D02*
X023900Y017350D01*
X023900Y005000D01*
X023014Y005666D02*
X020434Y005666D01*
X020555Y006012D02*
X022261Y006012D01*
X022389Y006140D02*
X020427Y006140D01*
X020298Y006269D02*
X022412Y006269D01*
X022314Y006397D02*
X020170Y006397D01*
X020204Y006455D02*
X020696Y006455D01*
X021045Y006804D01*
X021045Y007296D01*
X020791Y007550D01*
X021045Y007804D01*
X021045Y008296D01*
X020791Y008550D01*
X021045Y008804D01*
X021045Y009296D01*
X020791Y009550D01*
X021045Y009804D01*
X021045Y010296D01*
X020791Y010550D01*
X021045Y010804D01*
X021045Y011296D01*
X020791Y011550D01*
X021045Y011804D01*
X021045Y012296D01*
X020791Y012550D01*
X021045Y012804D01*
X021045Y013296D01*
X020791Y013550D01*
X021045Y013804D01*
X021045Y014296D01*
X020696Y014645D01*
X020204Y014645D01*
X019855Y014296D01*
X019855Y013804D01*
X020109Y013550D01*
X019855Y013296D01*
X019855Y012804D01*
X020109Y012550D01*
X019855Y012296D01*
X019855Y011804D01*
X020109Y011550D01*
X019855Y011296D01*
X019855Y010804D01*
X020109Y010550D01*
X019855Y010296D01*
X019855Y009804D01*
X020109Y009550D01*
X019855Y009296D01*
X019855Y008804D01*
X020109Y008550D01*
X019855Y008296D01*
X019855Y007804D01*
X020109Y007550D01*
X019855Y007296D01*
X019855Y006804D01*
X020204Y006455D01*
X020133Y006526D02*
X020041Y006526D01*
X020005Y006654D02*
X019913Y006654D01*
X019876Y006783D02*
X019784Y006783D01*
X019855Y006911D02*
X019656Y006911D01*
X019580Y007040D02*
X019855Y007040D01*
X019855Y007168D02*
X019580Y007168D01*
X019580Y007297D02*
X019855Y007297D01*
X019984Y007425D02*
X019580Y007425D01*
X019580Y007554D02*
X020105Y007554D01*
X019977Y007682D02*
X019580Y007682D01*
X019580Y007811D02*
X019855Y007811D01*
X019855Y007939D02*
X019580Y007939D01*
X019580Y008068D02*
X019855Y008068D01*
X019855Y008196D02*
X019580Y008196D01*
X019580Y008325D02*
X019883Y008325D01*
X020012Y008453D02*
X019580Y008453D01*
X019580Y008582D02*
X020077Y008582D01*
X019949Y008710D02*
X019580Y008710D01*
X019580Y008839D02*
X019855Y008839D01*
X019855Y008967D02*
X019580Y008967D01*
X019580Y009096D02*
X019855Y009096D01*
X019855Y009224D02*
X019535Y009224D01*
X019414Y009353D02*
X019911Y009353D01*
X020040Y009481D02*
X019286Y009481D01*
X019157Y009610D02*
X020049Y009610D01*
X019921Y009738D02*
X019029Y009738D01*
X018848Y009867D02*
X019855Y009867D01*
X019855Y009995D02*
X010230Y009995D01*
X010230Y009867D02*
X011083Y009867D01*
X011092Y009871D02*
X011026Y009838D01*
X010967Y009795D01*
X010915Y009743D01*
X010872Y009684D01*
X010839Y009618D01*
X010816Y009549D01*
X010805Y009477D01*
X010805Y009475D01*
X011535Y009475D01*
X011535Y009905D01*
X011233Y009905D01*
X011161Y009894D01*
X011092Y009871D01*
X010912Y009738D02*
X010230Y009738D01*
X010230Y009610D02*
X010836Y009610D01*
X010806Y009481D02*
X010230Y009481D01*
X010230Y009353D02*
X010813Y009353D01*
X010816Y009331D02*
X010839Y009262D01*
X010872Y009196D01*
X010915Y009137D01*
X010967Y009085D01*
X011026Y009042D01*
X011092Y009009D01*
X011161Y008986D01*
X011233Y008975D01*
X011535Y008975D01*
X011535Y009405D01*
X011605Y009405D01*
X011605Y009475D01*
X011535Y009475D01*
X011535Y009405D01*
X010805Y009405D01*
X010805Y009403D01*
X010816Y009331D01*
X010858Y009224D02*
X010230Y009224D01*
X010230Y009096D02*
X010957Y009096D01*
X010325Y008582D02*
X015885Y008582D01*
X015885Y008584D02*
X015898Y008504D01*
X015923Y008427D01*
X015960Y008355D01*
X016007Y008289D01*
X016064Y008232D01*
X016130Y008185D01*
X016202Y008148D01*
X016279Y008123D01*
X016359Y008110D01*
X016376Y008110D01*
X016376Y008601D01*
X015885Y008601D01*
X015885Y008584D01*
X015892Y008710D02*
X010230Y008710D01*
X010230Y008839D02*
X015931Y008839D01*
X016014Y008967D02*
X010230Y008967D01*
X009570Y008967D02*
X005230Y008967D01*
X005230Y008839D02*
X009570Y008839D01*
X009570Y008710D02*
X005230Y008710D01*
X005230Y008677D02*
X005230Y018166D01*
X005180Y018287D01*
X005087Y018380D01*
X004137Y019330D01*
X004016Y019380D01*
X001961Y019380D01*
X001791Y019550D01*
X001961Y019720D01*
X009413Y019720D01*
X009570Y019563D01*
X009570Y008677D01*
X009365Y008472D01*
X009365Y008352D01*
X009187Y008530D01*
X009066Y008580D01*
X005327Y008580D01*
X005230Y008677D01*
X005325Y008582D02*
X009475Y008582D01*
X009365Y008453D02*
X009264Y008453D01*
X009900Y008250D02*
X009900Y019700D01*
X009550Y020050D01*
X001450Y020050D01*
X001809Y020532D02*
X019855Y020532D01*
X019855Y020404D02*
X001938Y020404D01*
X001902Y020661D02*
X019855Y020661D01*
X019855Y020789D02*
X002030Y020789D01*
X002045Y020918D02*
X019876Y020918D01*
X020005Y021046D02*
X002045Y021046D01*
X002045Y021175D02*
X020133Y021175D01*
X020097Y021303D02*
X002038Y021303D01*
X001910Y021432D02*
X019968Y021432D01*
X020417Y021432D02*
X020483Y021432D01*
X020483Y021560D02*
X020417Y021560D01*
X020417Y021617D02*
X020483Y021617D01*
X020483Y021245D01*
X020417Y021245D01*
X020417Y021617D01*
X020417Y021683D02*
X020417Y022055D01*
X020483Y022055D01*
X020483Y021683D01*
X020417Y021683D01*
X020417Y021689D02*
X020483Y021689D01*
X020483Y021817D02*
X020417Y021817D01*
X020417Y021946D02*
X020483Y021946D01*
X020483Y021303D02*
X020417Y021303D01*
X019984Y020275D02*
X009792Y020275D01*
X009920Y020147D02*
X020105Y020147D01*
X019977Y020018D02*
X010049Y020018D01*
X010177Y019890D02*
X019855Y019890D01*
X019855Y019761D02*
X010230Y019761D01*
X010230Y019633D02*
X019855Y019633D01*
X019855Y019504D02*
X010230Y019504D01*
X010230Y019376D02*
X019883Y019376D01*
X020012Y019247D02*
X010230Y019247D01*
X010230Y019119D02*
X020077Y019119D01*
X019949Y018990D02*
X010230Y018990D01*
X010230Y018862D02*
X019855Y018862D01*
X019855Y018733D02*
X010230Y018733D01*
X010230Y018605D02*
X019855Y018605D01*
X019855Y018476D02*
X010230Y018476D01*
X010230Y018348D02*
X019911Y018348D01*
X020040Y018219D02*
X010230Y018219D01*
X010230Y018091D02*
X020049Y018091D01*
X019921Y017962D02*
X010230Y017962D01*
X010230Y017834D02*
X019855Y017834D01*
X019855Y017705D02*
X010230Y017705D01*
X010230Y017577D02*
X019855Y017577D01*
X019855Y017448D02*
X010230Y017448D01*
X010230Y017320D02*
X019939Y017320D01*
X020068Y017191D02*
X010230Y017191D01*
X010230Y017063D02*
X020021Y017063D01*
X019893Y016934D02*
X010230Y016934D01*
X010230Y016806D02*
X019855Y016806D01*
X019855Y016677D02*
X010230Y016677D01*
X010230Y016549D02*
X019855Y016549D01*
X019855Y016420D02*
X010230Y016420D01*
X010230Y016292D02*
X019967Y016292D01*
X020096Y016163D02*
X010230Y016163D01*
X010230Y016035D02*
X019993Y016035D01*
X019865Y015906D02*
X010230Y015906D01*
X010230Y015778D02*
X019855Y015778D01*
X019855Y015649D02*
X010230Y015649D01*
X010230Y015521D02*
X019855Y015521D01*
X019867Y015392D02*
X010230Y015392D01*
X010230Y015264D02*
X019995Y015264D01*
X020124Y015135D02*
X010230Y015135D01*
X010230Y015007D02*
X022356Y015007D01*
X022291Y014878D02*
X010230Y014878D01*
X010230Y014750D02*
X022249Y014750D01*
X022249Y014621D02*
X020720Y014621D01*
X020849Y014493D02*
X022274Y014493D01*
X022328Y014364D02*
X020977Y014364D01*
X021045Y014236D02*
X022445Y014236D01*
X022356Y014107D02*
X021045Y014107D01*
X021045Y013979D02*
X022232Y013979D01*
X022179Y013850D02*
X021045Y013850D01*
X020963Y013722D02*
X022149Y013722D01*
X022149Y013593D02*
X020834Y013593D01*
X020877Y013465D02*
X022186Y013465D01*
X022245Y013336D02*
X021005Y013336D01*
X021045Y013208D02*
X022373Y013208D01*
X022428Y013079D02*
X021045Y013079D01*
X021045Y012951D02*
X022321Y012951D01*
X022267Y012822D02*
X021045Y012822D01*
X020935Y012694D02*
X022249Y012694D01*
X022249Y012565D02*
X020806Y012565D01*
X020905Y012437D02*
X022298Y012437D01*
X022373Y012308D02*
X021033Y012308D01*
X021045Y012180D02*
X022478Y012180D01*
X022300Y012051D02*
X021045Y012051D01*
X021045Y011923D02*
X022209Y011923D01*
X022156Y011794D02*
X021035Y011794D01*
X020907Y011666D02*
X022149Y011666D01*
X022156Y011537D02*
X020804Y011537D01*
X020933Y011409D02*
X022209Y011409D01*
X022301Y011280D02*
X021045Y011280D01*
X021045Y011152D02*
X022479Y011152D01*
X022372Y011023D02*
X021045Y011023D01*
X021045Y010895D02*
X022297Y010895D01*
X022249Y010766D02*
X021007Y010766D01*
X020879Y010638D02*
X022249Y010638D01*
X022268Y010509D02*
X020832Y010509D01*
X020961Y010381D02*
X022321Y010381D01*
X022429Y010252D02*
X021045Y010252D01*
X021045Y010124D02*
X022373Y010124D01*
X022244Y009995D02*
X021045Y009995D01*
X021045Y009867D02*
X022186Y009867D01*
X022149Y009738D02*
X020979Y009738D01*
X020851Y009610D02*
X022149Y009610D01*
X022179Y009481D02*
X020860Y009481D01*
X020989Y009353D02*
X022232Y009353D01*
X022357Y009224D02*
X021045Y009224D01*
X021045Y009096D02*
X022445Y009096D01*
X022327Y008967D02*
X021045Y008967D01*
X021045Y008839D02*
X022274Y008839D01*
X022249Y008710D02*
X020951Y008710D01*
X020823Y008582D02*
X022249Y008582D01*
X022291Y008453D02*
X020888Y008453D01*
X021017Y008325D02*
X022356Y008325D01*
X022485Y008196D02*
X021045Y008196D01*
X021045Y008068D02*
X022478Y008068D01*
X022338Y007939D02*
X021045Y007939D01*
X021045Y007811D02*
X022272Y007811D01*
X022262Y007554D02*
X020795Y007554D01*
X020916Y007425D02*
X022315Y007425D01*
X022431Y007297D02*
X021045Y007297D01*
X021045Y007168D02*
X022550Y007168D01*
X022389Y007040D02*
X021045Y007040D01*
X021045Y006911D02*
X022304Y006911D01*
X022251Y006783D02*
X021024Y006783D01*
X020895Y006654D02*
X022249Y006654D01*
X022261Y006526D02*
X020767Y006526D01*
X020923Y007682D02*
X022979Y007682D01*
X022340Y005241D02*
X018730Y005241D01*
X018730Y005112D02*
X022461Y005112D01*
X021288Y004213D02*
X020906Y004213D01*
X021034Y004084D02*
X021107Y004084D01*
X021455Y003185D02*
X021545Y003185D01*
X021545Y003056D02*
X021455Y003056D01*
X021455Y002928D02*
X021545Y002928D01*
X021545Y002799D02*
X021455Y002799D01*
X021455Y002671D02*
X021545Y002671D01*
X021545Y002542D02*
X021455Y002542D01*
X021193Y002542D02*
X020960Y002542D01*
X021059Y002671D02*
X021064Y002671D01*
X023519Y000871D02*
X023985Y000871D01*
X023985Y001000D02*
X023648Y001000D01*
X023733Y001129D02*
X023985Y001129D01*
X023985Y001257D02*
X023786Y001257D01*
X023818Y001386D02*
X023985Y001386D01*
X023985Y001514D02*
X023818Y001514D01*
X023815Y001643D02*
X023985Y001643D01*
X023985Y001771D02*
X023762Y001771D01*
X023709Y001900D02*
X023985Y001900D01*
X023985Y002028D02*
X023588Y002028D01*
X018070Y005112D02*
X006030Y005112D01*
X005700Y004700D02*
X005700Y003400D01*
X006335Y003313D02*
X008615Y003313D01*
X008615Y003185D02*
X006335Y003185D01*
X006335Y003056D02*
X008615Y003056D01*
X008615Y002928D02*
X006335Y002928D01*
X006292Y002799D02*
X008658Y002799D01*
X008712Y002671D02*
X006238Y002671D01*
X006110Y002542D02*
X008840Y002542D01*
X009079Y002414D02*
X005871Y002414D01*
X005529Y002414D02*
X004871Y002414D01*
X005110Y002542D02*
X005290Y002542D01*
X004529Y002414D02*
X003871Y002414D01*
X004110Y002542D02*
X004290Y002542D01*
X005156Y004213D02*
X005244Y004213D01*
X005370Y004341D02*
X004981Y004341D01*
X005293Y005241D02*
X003834Y005241D01*
X004035Y005369D02*
X005164Y005369D01*
X005036Y005498D02*
X004163Y005498D01*
X004243Y005626D02*
X004907Y005626D01*
X004779Y005755D02*
X004296Y005755D01*
X004345Y005883D02*
X004650Y005883D01*
X004522Y006012D02*
X004345Y006012D01*
X004345Y006140D02*
X004393Y006140D01*
X004427Y007040D02*
X018070Y007040D01*
X017139Y008068D02*
X014822Y008068D01*
X014612Y008196D02*
X016114Y008196D01*
X015982Y008325D02*
X010435Y008325D01*
X010435Y008453D02*
X015914Y008453D01*
X016376Y008453D02*
X016424Y008453D01*
X016424Y008325D02*
X016376Y008325D01*
X016376Y008196D02*
X016424Y008196D01*
X016686Y008196D02*
X016959Y008196D01*
X016859Y008325D02*
X016818Y008325D01*
X016424Y008582D02*
X016376Y008582D01*
X016376Y008710D02*
X016424Y008710D01*
X016424Y008839D02*
X016376Y008839D01*
X016376Y008967D02*
X016424Y008967D01*
X016424Y009096D02*
X016376Y009096D01*
X016189Y009096D02*
X014743Y009096D01*
X014733Y009085D02*
X014785Y009137D01*
X014828Y009196D01*
X014861Y009262D01*
X014884Y009331D01*
X014895Y009403D01*
X014895Y009405D01*
X014165Y009405D01*
X014165Y009475D01*
X014095Y009475D01*
X014095Y009905D01*
X013793Y009905D01*
X013721Y009894D01*
X013652Y009871D01*
X013586Y009838D01*
X013527Y009795D01*
X013475Y009743D01*
X013432Y009684D01*
X013399Y009618D01*
X013376Y009549D01*
X013365Y009477D01*
X013365Y009475D01*
X014095Y009475D01*
X014095Y009405D01*
X014165Y009405D01*
X014165Y008975D01*
X014467Y008975D01*
X014539Y008986D01*
X014608Y009009D01*
X014674Y009042D01*
X014733Y009085D01*
X014842Y009224D02*
X017070Y009224D01*
X017106Y009353D02*
X014887Y009353D01*
X014895Y009475D02*
X014895Y009477D01*
X014884Y009549D01*
X014861Y009618D01*
X014828Y009684D01*
X014785Y009743D01*
X014733Y009795D01*
X014674Y009838D01*
X014608Y009871D01*
X014539Y009894D01*
X014467Y009905D01*
X014165Y009905D01*
X014165Y009475D01*
X014895Y009475D01*
X014894Y009481D02*
X017214Y009481D01*
X017343Y009610D02*
X014864Y009610D01*
X014788Y009738D02*
X017471Y009738D01*
X017652Y009867D02*
X014617Y009867D01*
X014165Y009867D02*
X014095Y009867D01*
X014095Y009738D02*
X014165Y009738D01*
X014165Y009610D02*
X014095Y009610D01*
X014095Y009481D02*
X014165Y009481D01*
X014095Y009405D02*
X014095Y008975D01*
X013793Y008975D01*
X013721Y008986D01*
X013652Y009009D01*
X013586Y009042D01*
X013527Y009085D01*
X013475Y009137D01*
X013432Y009196D01*
X013399Y009262D01*
X013376Y009331D01*
X013365Y009403D01*
X013365Y009405D01*
X014095Y009405D01*
X014095Y009353D02*
X014165Y009353D01*
X014165Y009224D02*
X014095Y009224D01*
X014095Y009096D02*
X014165Y009096D01*
X013517Y009096D02*
X012183Y009096D01*
X012173Y009085D02*
X012225Y009137D01*
X012268Y009196D01*
X012301Y009262D01*
X012324Y009331D01*
X012335Y009403D01*
X012335Y009405D01*
X011605Y009405D01*
X011605Y008975D01*
X011907Y008975D01*
X011979Y008986D01*
X012048Y009009D01*
X012114Y009042D01*
X012173Y009085D01*
X012282Y009224D02*
X013418Y009224D01*
X013373Y009353D02*
X012327Y009353D01*
X012335Y009475D02*
X012335Y009477D01*
X012324Y009549D01*
X012301Y009618D01*
X012268Y009684D01*
X012225Y009743D01*
X012173Y009795D01*
X012114Y009838D01*
X012048Y009871D01*
X011979Y009894D01*
X011907Y009905D01*
X011605Y009905D01*
X011605Y009475D01*
X012335Y009475D01*
X012334Y009481D02*
X013366Y009481D01*
X013396Y009610D02*
X012304Y009610D01*
X012228Y009738D02*
X013472Y009738D01*
X013643Y009867D02*
X012057Y009867D01*
X011605Y009867D02*
X011535Y009867D01*
X011535Y009738D02*
X011605Y009738D01*
X011605Y009610D02*
X011535Y009610D01*
X011535Y009481D02*
X011605Y009481D01*
X011605Y009353D02*
X011535Y009353D01*
X011535Y009224D02*
X011605Y009224D01*
X011605Y009096D02*
X011535Y009096D01*
X011088Y008196D02*
X010435Y008196D01*
X010435Y008068D02*
X010878Y008068D01*
X010791Y007980D02*
X010791Y007980D01*
X010834Y007297D02*
X004170Y007297D01*
X004042Y007425D02*
X009358Y007425D01*
X009230Y007554D02*
X003913Y007554D01*
X003785Y007682D02*
X009101Y007682D01*
X008973Y007811D02*
X005217Y007811D01*
X004583Y007811D02*
X003656Y007811D01*
X003528Y007939D02*
X004454Y007939D01*
X004365Y008068D02*
X003399Y008068D01*
X003271Y008196D02*
X004365Y008196D01*
X004365Y008325D02*
X003142Y008325D01*
X003014Y008453D02*
X004365Y008453D01*
X004475Y008582D02*
X002885Y008582D01*
X002880Y008710D02*
X004570Y008710D01*
X004570Y008839D02*
X002880Y008839D01*
X002880Y008967D02*
X004570Y008967D01*
X004570Y009096D02*
X002880Y009096D01*
X002880Y009224D02*
X004570Y009224D01*
X004570Y009353D02*
X002880Y009353D01*
X002880Y009481D02*
X004570Y009481D01*
X004570Y009610D02*
X002880Y009610D01*
X002880Y009738D02*
X004570Y009738D01*
X004570Y009867D02*
X002880Y009867D01*
X002880Y009995D02*
X004570Y009995D01*
X004570Y010124D02*
X002880Y010124D01*
X002880Y010252D02*
X004570Y010252D01*
X004570Y010381D02*
X002880Y010381D01*
X002880Y010509D02*
X004570Y010509D01*
X004570Y010638D02*
X002880Y010638D01*
X002880Y010766D02*
X004570Y010766D01*
X004570Y010895D02*
X002880Y010895D01*
X002880Y011023D02*
X004570Y011023D01*
X004570Y011152D02*
X002880Y011152D01*
X002880Y011280D02*
X004570Y011280D01*
X004570Y011409D02*
X002880Y011409D01*
X002880Y011537D02*
X004570Y011537D01*
X004570Y011666D02*
X002880Y011666D01*
X002880Y011794D02*
X004570Y011794D01*
X004570Y011923D02*
X002880Y011923D01*
X002880Y012051D02*
X004570Y012051D01*
X004570Y012180D02*
X002880Y012180D01*
X002880Y012308D02*
X004570Y012308D01*
X004570Y012437D02*
X002880Y012437D01*
X002880Y012565D02*
X004570Y012565D01*
X004570Y012694D02*
X002880Y012694D01*
X002880Y012822D02*
X004570Y012822D01*
X004570Y012951D02*
X002880Y012951D01*
X002880Y013079D02*
X004570Y013079D01*
X004570Y013208D02*
X002880Y013208D01*
X002880Y013336D02*
X004570Y013336D01*
X004570Y013465D02*
X002880Y013465D01*
X002880Y013593D02*
X004570Y013593D01*
X004570Y013722D02*
X002880Y013722D01*
X002880Y013850D02*
X004570Y013850D01*
X004570Y013979D02*
X002880Y013979D01*
X002880Y014107D02*
X004570Y014107D01*
X004570Y014236D02*
X002880Y014236D01*
X002880Y014364D02*
X004570Y014364D01*
X004570Y014493D02*
X002880Y014493D01*
X002880Y014621D02*
X004570Y014621D01*
X004570Y014750D02*
X002880Y014750D01*
X002880Y014878D02*
X004570Y014878D01*
X004570Y015007D02*
X002880Y015007D01*
X002880Y015135D02*
X004570Y015135D01*
X004570Y015264D02*
X002880Y015264D01*
X002880Y015392D02*
X004570Y015392D01*
X004570Y015521D02*
X002880Y015521D01*
X002880Y015649D02*
X004570Y015649D01*
X004570Y015778D02*
X002880Y015778D01*
X002880Y015906D02*
X004570Y015906D01*
X004570Y016035D02*
X002880Y016035D01*
X002880Y016163D02*
X004570Y016163D01*
X004570Y016292D02*
X002825Y016292D01*
X002697Y016420D02*
X004570Y016420D01*
X004570Y016549D02*
X002568Y016549D01*
X002440Y016677D02*
X004570Y016677D01*
X004570Y016806D02*
X002311Y016806D01*
X002183Y016934D02*
X004570Y016934D01*
X004570Y017063D02*
X002054Y017063D01*
X002045Y017191D02*
X004570Y017191D01*
X004570Y017320D02*
X002022Y017320D01*
X001893Y017448D02*
X004570Y017448D01*
X004570Y017577D02*
X001818Y017577D01*
X001946Y017705D02*
X004570Y017705D01*
X004570Y017834D02*
X002045Y017834D01*
X002045Y017962D02*
X004570Y017962D01*
X004443Y018091D02*
X002045Y018091D01*
X002045Y018219D02*
X004314Y018219D01*
X004186Y018348D02*
X001994Y018348D01*
X001865Y018476D02*
X004057Y018476D01*
X003929Y018605D02*
X001846Y018605D01*
X001837Y019504D02*
X009570Y019504D01*
X009570Y019376D02*
X004026Y019376D01*
X004220Y019247D02*
X009570Y019247D01*
X009570Y019119D02*
X004348Y019119D01*
X004477Y018990D02*
X009570Y018990D01*
X009570Y018862D02*
X004605Y018862D01*
X004734Y018733D02*
X009570Y018733D01*
X009570Y018605D02*
X004862Y018605D01*
X004991Y018476D02*
X009570Y018476D01*
X009570Y018348D02*
X005119Y018348D01*
X005208Y018219D02*
X009570Y018219D01*
X009570Y018091D02*
X005230Y018091D01*
X005230Y017962D02*
X009570Y017962D01*
X009570Y017834D02*
X005230Y017834D01*
X005230Y017705D02*
X009570Y017705D01*
X009570Y017577D02*
X005230Y017577D01*
X005230Y017448D02*
X009570Y017448D01*
X009570Y017320D02*
X005230Y017320D01*
X005230Y017191D02*
X009570Y017191D01*
X009570Y017063D02*
X005230Y017063D01*
X005230Y016934D02*
X009570Y016934D01*
X009570Y016806D02*
X005230Y016806D01*
X005230Y016677D02*
X009570Y016677D01*
X009570Y016549D02*
X005230Y016549D01*
X005230Y016420D02*
X009570Y016420D01*
X009570Y016292D02*
X005230Y016292D01*
X005230Y016163D02*
X009570Y016163D01*
X009570Y016035D02*
X005230Y016035D01*
X005230Y015906D02*
X009570Y015906D01*
X009570Y015778D02*
X005230Y015778D01*
X005230Y015649D02*
X009570Y015649D01*
X009570Y015521D02*
X005230Y015521D01*
X005230Y015392D02*
X009570Y015392D01*
X009570Y015264D02*
X005230Y015264D01*
X005230Y015135D02*
X009570Y015135D01*
X009570Y015007D02*
X005230Y015007D01*
X005230Y014878D02*
X009570Y014878D01*
X009570Y014750D02*
X005230Y014750D01*
X005230Y014621D02*
X009570Y014621D01*
X009570Y014493D02*
X005230Y014493D01*
X005230Y014364D02*
X009570Y014364D01*
X009570Y014236D02*
X005230Y014236D01*
X005230Y014107D02*
X009570Y014107D01*
X009570Y013979D02*
X005230Y013979D01*
X005230Y013850D02*
X009570Y013850D01*
X009570Y013722D02*
X005230Y013722D01*
X005230Y013593D02*
X009570Y013593D01*
X009570Y013465D02*
X005230Y013465D01*
X005230Y013336D02*
X009570Y013336D01*
X009570Y013208D02*
X005230Y013208D01*
X005230Y013079D02*
X009570Y013079D01*
X009570Y012951D02*
X005230Y012951D01*
X005230Y012822D02*
X009570Y012822D01*
X009570Y012694D02*
X005230Y012694D01*
X005230Y012565D02*
X009570Y012565D01*
X009570Y012437D02*
X005230Y012437D01*
X005230Y012308D02*
X009570Y012308D01*
X009570Y012180D02*
X005230Y012180D01*
X005230Y012051D02*
X009570Y012051D01*
X009570Y011923D02*
X005230Y011923D01*
X005230Y011794D02*
X009570Y011794D01*
X009570Y011666D02*
X005230Y011666D01*
X005230Y011537D02*
X009570Y011537D01*
X009570Y011409D02*
X005230Y011409D01*
X005230Y011280D02*
X009570Y011280D01*
X009570Y011152D02*
X005230Y011152D01*
X005230Y011023D02*
X009570Y011023D01*
X009570Y010895D02*
X005230Y010895D01*
X005230Y010766D02*
X009570Y010766D01*
X009570Y010638D02*
X005230Y010638D01*
X005230Y010509D02*
X009570Y010509D01*
X009570Y010381D02*
X005230Y010381D01*
X005230Y010252D02*
X009570Y010252D01*
X009570Y010124D02*
X005230Y010124D01*
X005230Y009995D02*
X009570Y009995D01*
X009570Y009867D02*
X005230Y009867D01*
X005230Y009738D02*
X009570Y009738D01*
X009570Y009610D02*
X005230Y009610D01*
X005230Y009481D02*
X009570Y009481D01*
X009570Y009353D02*
X005230Y009353D01*
X005230Y009224D02*
X009570Y009224D01*
X009570Y009096D02*
X005230Y009096D01*
X004299Y007168D02*
X010981Y007168D01*
X010230Y010124D02*
X019855Y010124D01*
X019855Y010252D02*
X010230Y010252D01*
X010230Y010381D02*
X019939Y010381D01*
X020068Y010509D02*
X010230Y010509D01*
X010230Y010638D02*
X020021Y010638D01*
X019893Y010766D02*
X010230Y010766D01*
X010230Y010895D02*
X019855Y010895D01*
X019855Y011023D02*
X010230Y011023D01*
X010230Y011152D02*
X019855Y011152D01*
X019855Y011280D02*
X010230Y011280D01*
X010230Y011409D02*
X019967Y011409D01*
X020096Y011537D02*
X010230Y011537D01*
X010230Y011666D02*
X019993Y011666D01*
X019865Y011794D02*
X010230Y011794D01*
X010230Y011923D02*
X019855Y011923D01*
X019855Y012051D02*
X010230Y012051D01*
X010230Y012180D02*
X019855Y012180D01*
X019867Y012308D02*
X010230Y012308D01*
X010230Y012437D02*
X019995Y012437D01*
X020094Y012565D02*
X010230Y012565D01*
X010230Y012694D02*
X019965Y012694D01*
X019855Y012822D02*
X010230Y012822D01*
X010230Y012951D02*
X019855Y012951D01*
X019855Y013079D02*
X010230Y013079D01*
X010230Y013208D02*
X019855Y013208D01*
X019895Y013336D02*
X010230Y013336D01*
X010230Y013465D02*
X020023Y013465D01*
X020066Y013593D02*
X010230Y013593D01*
X010230Y013722D02*
X019937Y013722D01*
X019855Y013850D02*
X010230Y013850D01*
X010230Y013979D02*
X019855Y013979D01*
X019855Y014107D02*
X010230Y014107D01*
X010230Y014236D02*
X019855Y014236D01*
X019923Y014364D02*
X010230Y014364D01*
X010230Y014493D02*
X020051Y014493D01*
X020180Y014621D02*
X010230Y014621D01*
X009501Y019633D02*
X001874Y019633D01*
X001483Y016420D02*
X001417Y016420D01*
X001417Y016292D02*
X001483Y016292D01*
X001483Y016163D02*
X001417Y016163D01*
X001417Y016083D02*
X001130Y016083D01*
X001130Y016017D01*
X001417Y016017D01*
X001417Y016083D01*
X001417Y016035D02*
X001130Y016035D01*
X001417Y015906D02*
X001483Y015906D01*
X001483Y016017D02*
X001483Y015555D01*
X001655Y015555D01*
X001945Y015845D01*
X001945Y016017D01*
X001483Y016017D01*
X001483Y016035D02*
X002149Y016035D01*
X002220Y015906D02*
X001945Y015906D01*
X001878Y015778D02*
X002220Y015778D01*
X002220Y015649D02*
X001749Y015649D01*
X001655Y015545D02*
X001483Y015545D01*
X001483Y015083D01*
X001945Y015083D01*
X001945Y015255D01*
X001655Y015545D01*
X001680Y015521D02*
X002220Y015521D01*
X002220Y015392D02*
X001808Y015392D01*
X001937Y015264D02*
X002220Y015264D01*
X002220Y015135D02*
X001945Y015135D01*
X001945Y015007D02*
X002220Y015007D01*
X002220Y014878D02*
X001945Y014878D01*
X001850Y014750D02*
X002220Y014750D01*
X002220Y014364D02*
X001977Y014364D01*
X002045Y014236D02*
X002220Y014236D01*
X002220Y014107D02*
X002045Y014107D01*
X002045Y013979D02*
X002220Y013979D01*
X002220Y013850D02*
X002045Y013850D01*
X001963Y013722D02*
X002220Y013722D01*
X002220Y013593D02*
X001834Y013593D01*
X001706Y013465D02*
X002220Y013465D01*
X002220Y013336D02*
X001130Y013336D01*
X001130Y013208D02*
X002220Y013208D01*
X002220Y013079D02*
X001130Y013079D01*
X001130Y012951D02*
X002220Y012951D01*
X002220Y012822D02*
X001130Y012822D01*
X001130Y012694D02*
X002220Y012694D01*
X002220Y012565D02*
X001776Y012565D01*
X001905Y012437D02*
X002220Y012437D01*
X002220Y012308D02*
X002033Y012308D01*
X002045Y012180D02*
X002220Y012180D01*
X002220Y012051D02*
X002045Y012051D01*
X002045Y011923D02*
X002220Y011923D01*
X002220Y011794D02*
X002035Y011794D01*
X001907Y011666D02*
X002220Y011666D01*
X002220Y011537D02*
X001804Y011537D01*
X001933Y011409D02*
X002220Y011409D01*
X002220Y011280D02*
X002045Y011280D01*
X002045Y011152D02*
X002220Y011152D01*
X002220Y011023D02*
X002045Y011023D01*
X002045Y010895D02*
X002220Y010895D01*
X002220Y010766D02*
X002007Y010766D01*
X001879Y010638D02*
X002220Y010638D01*
X002220Y010509D02*
X001832Y010509D01*
X001961Y010381D02*
X002220Y010381D01*
X002220Y010252D02*
X002045Y010252D01*
X002045Y010124D02*
X002220Y010124D01*
X002220Y009995D02*
X002045Y009995D01*
X002045Y009867D02*
X002220Y009867D01*
X002220Y009738D02*
X001979Y009738D01*
X001851Y009610D02*
X002220Y009610D01*
X002220Y009481D02*
X001860Y009481D01*
X001989Y009353D02*
X002220Y009353D01*
X002220Y009224D02*
X002045Y009224D01*
X002045Y009096D02*
X002220Y009096D01*
X002220Y008967D02*
X002045Y008967D01*
X002045Y008839D02*
X002220Y008839D01*
X002220Y008710D02*
X001951Y008710D01*
X001823Y008582D02*
X002220Y008582D01*
X002220Y008453D02*
X001888Y008453D01*
X002017Y008325D02*
X002245Y008325D01*
X002337Y008196D02*
X002045Y008196D01*
X002045Y008068D02*
X002466Y008068D01*
X002594Y007939D02*
X002045Y007939D01*
X002045Y007811D02*
X002723Y007811D01*
X002851Y007682D02*
X001923Y007682D01*
X001795Y007554D02*
X002980Y007554D01*
X003108Y007425D02*
X001916Y007425D01*
X002045Y007297D02*
X003237Y007297D01*
X003365Y007168D02*
X002045Y007168D01*
X002045Y007040D02*
X003494Y007040D01*
X003190Y006911D02*
X002045Y006911D01*
X002024Y006783D02*
X002917Y006783D01*
X002788Y006654D02*
X001895Y006654D01*
X001767Y006526D02*
X002678Y006526D01*
X009421Y002414D02*
X010079Y002414D01*
X009840Y002542D02*
X009660Y002542D01*
X010421Y002414D02*
X011079Y002414D01*
X010840Y002542D02*
X010660Y002542D01*
X013590Y002542D02*
X013824Y002445D01*
X014076Y002445D01*
X014310Y002542D01*
X014590Y002542D01*
X014824Y002445D01*
X015076Y002445D01*
X015310Y002542D01*
X015590Y002542D01*
X015824Y002445D01*
X016076Y002445D01*
X016310Y002542D01*
X016439Y002671D02*
X016603Y002671D01*
X015590Y002542D02*
X015450Y002682D01*
X015310Y002542D01*
X015439Y002671D02*
X015461Y002671D01*
X014590Y002542D02*
X014450Y002682D01*
X014310Y002542D01*
X014439Y002671D02*
X014461Y002671D01*
X016786Y008967D02*
X016876Y008967D01*
X017001Y009096D02*
X016611Y009096D01*
X020776Y015135D02*
X022484Y015135D01*
X022317Y015264D02*
X020905Y015264D01*
X021033Y015392D02*
X022216Y015392D01*
X022163Y015521D02*
X021045Y015521D01*
X021045Y015649D02*
X022149Y015649D01*
X022149Y015778D02*
X021045Y015778D01*
X021035Y015906D02*
X022202Y015906D01*
X022284Y016035D02*
X020907Y016035D01*
X020804Y016163D02*
X022438Y016163D01*
X022389Y016292D02*
X020933Y016292D01*
X021045Y016420D02*
X022304Y016420D01*
X022251Y016549D02*
X021045Y016549D01*
X021045Y016677D02*
X022249Y016677D01*
X022261Y016806D02*
X021045Y016806D01*
X021007Y016934D02*
X022314Y016934D01*
X022412Y017063D02*
X020879Y017063D01*
X020832Y017191D02*
X022390Y017191D01*
X022261Y017320D02*
X020961Y017320D01*
X021045Y017448D02*
X022193Y017448D01*
X022149Y017577D02*
X021045Y017577D01*
X021045Y017705D02*
X022149Y017705D01*
X022172Y017834D02*
X021045Y017834D01*
X020979Y017962D02*
X022225Y017962D01*
X022340Y018091D02*
X020851Y018091D01*
X020860Y018219D02*
X022574Y018219D01*
X022475Y018348D02*
X020989Y018348D01*
X021045Y018476D02*
X022389Y018476D01*
X022353Y018605D02*
X021045Y018605D01*
X021045Y018733D02*
X022354Y018733D01*
X022392Y018862D02*
X021045Y018862D01*
X020951Y018990D02*
X022481Y018990D01*
X022703Y019119D02*
X020823Y019119D01*
X023079Y019119D02*
X023149Y019119D01*
X023149Y018990D02*
X023079Y018990D01*
X023079Y018862D02*
X023149Y018862D01*
X023149Y018733D02*
X023079Y018733D01*
X023014Y017666D02*
X023584Y017666D01*
X023985Y027086D02*
X002180Y027086D01*
X002052Y027214D02*
X023985Y027214D01*
X023985Y027343D02*
X001875Y027343D01*
X001945Y016163D02*
X002020Y016163D01*
X001483Y015778D02*
X001417Y015778D01*
X001417Y015649D02*
X001483Y015649D01*
X001483Y015521D02*
X001417Y015521D01*
X001417Y015392D02*
X001483Y015392D01*
X001483Y015264D02*
X001417Y015264D01*
X001417Y015135D02*
X001483Y015135D01*
X001417Y015083D02*
X001130Y015083D01*
X001130Y015017D01*
X001417Y015017D01*
X001417Y015083D01*
X001417Y015017D02*
X001483Y015017D01*
X001483Y014645D01*
X001417Y014645D01*
X001417Y015017D01*
X001417Y015007D02*
X001483Y015007D01*
X001483Y014878D02*
X001417Y014878D01*
X001417Y014750D02*
X001483Y014750D01*
X001220Y015521D02*
X001130Y015521D01*
X001130Y015649D02*
X001151Y015649D01*
X001130Y013465D02*
X001194Y013465D01*
D16*
X001550Y013100D03*
X002150Y012300D03*
X002900Y011700D03*
X003000Y010600D03*
X001950Y010650D03*
X002100Y009650D03*
X002100Y008550D03*
X002100Y007550D03*
X000850Y005200D03*
X001000Y001150D03*
X005050Y001200D03*
X007950Y001300D03*
X010400Y001300D03*
X013150Y001300D03*
X013100Y003450D03*
X015650Y001300D03*
X017700Y003450D03*
X018450Y001250D03*
X021450Y001300D03*
X019350Y005650D03*
X013950Y010900D03*
X016550Y011600D03*
X015600Y014450D03*
X012900Y013800D03*
X012350Y016750D03*
X012900Y019200D03*
X014400Y021000D03*
X012950Y024600D03*
X014300Y026450D03*
X007600Y021050D03*
X005600Y020800D03*
X004400Y019200D03*
X003400Y017050D03*
X006700Y015550D03*
X008650Y014050D03*
X004400Y013800D03*
X006250Y009850D03*
X008400Y006350D03*
X008150Y004000D03*
X011250Y006100D03*
X022900Y021900D03*
X023100Y026200D03*
X004800Y026500D03*
X004400Y024600D03*
M02*
