G75*
G70*
%OFA0B0*%
%FSLAX24Y24*%
%IPPOS*%
%LPD*%
%AMOC8*
5,1,8,0,0,1.08239X$1,22.5*
%
%ADD10R,0.1000X0.0600*%
D10*
X003550Y012800D03*
X003550Y013800D03*
X003550Y014800D03*
X003550Y015800D03*
X003550Y018200D03*
X003550Y019200D03*
X003550Y020200D03*
X003550Y021200D03*
X003550Y023600D03*
X003550Y024600D03*
X003550Y025600D03*
X003550Y026600D03*
X010150Y026600D03*
X010150Y025600D03*
X010150Y024600D03*
X010150Y023600D03*
X012100Y023600D03*
X012100Y024600D03*
X012100Y025600D03*
X012100Y026600D03*
X012100Y021200D03*
X012100Y020200D03*
X012100Y019200D03*
X012100Y018200D03*
X010150Y018200D03*
X010150Y019200D03*
X010150Y020200D03*
X010150Y021200D03*
X010150Y015800D03*
X010150Y014800D03*
X010150Y013800D03*
X010150Y012800D03*
X012100Y012800D03*
X012100Y013800D03*
X012100Y014800D03*
X012100Y015800D03*
X018700Y015800D03*
X018700Y014800D03*
X018700Y013800D03*
X018700Y012800D03*
X018700Y018200D03*
X018700Y019200D03*
X018700Y020200D03*
X018700Y021200D03*
X018700Y023600D03*
X018700Y024600D03*
X018700Y025600D03*
X018700Y026600D03*
M02*
