%
M48
M72
T01C0.0130
T02C0.0354
T03C0.0360
T04C0.0394
T05C0.0400
T06C0.0440
T07C0.0984
T08C0.1260
%
T01
X1000Y1150
X5050Y1200
X7950Y1300
X10400Y1300
X13150Y1300
X13100Y3450
X15650Y1300
X17700Y3450
X18450Y1250
X21450Y1300
X19350Y5650
X13950Y10900
X16550Y11600
X15600Y14450
X12900Y13800
X12350Y16750
X12900Y19200
X14400Y21000
X12950Y24600
X14300Y26450
X7600Y21050
X5600Y20800
X4400Y19200
X3400Y17050
X6700Y15550
X8650Y14050
X4400Y13800
X2150Y12300
X2900Y11700
X3000Y10600
X1950Y10650
X2100Y9650
X2100Y8550
X2100Y7550
X850Y5200
X6250Y9850
X8400Y6350
X8150Y4000
X11250Y6100
X1550Y13100
X4400Y24600
X4800Y26500
X23100Y26200
X22900Y21900
T02
X18400Y8625
X17400Y8625
X16400Y8625
T03
X9900Y8250
X4900Y8250
T04
X1450Y8050
X1450Y7050
X1450Y9050
X1450Y10050
X1450Y11050
X1450Y12050
X1450Y14050
X1450Y15050
X1450Y16050
X1450Y17050
X1450Y18050
X1450Y19050
X1450Y20050
X1450Y21050
X20450Y20650
X20450Y19650
X20450Y18650
X20450Y17650
X20450Y16650
X20450Y15650
X20450Y14050
X20450Y13050
X20450Y12050
X20450Y11050
X20450Y10050
X20450Y9050
X20450Y8050
X20450Y7050
X20450Y21650
X20450Y22650
X20450Y23650
X20450Y24650
T05
X23114Y18666
X23014Y17666
X23114Y16666
X23014Y15666
X23114Y14666
X23014Y13666
X23114Y12666
X23014Y11666
X23114Y10666
X23014Y9666
X23114Y8666
X23014Y7666
X23114Y6666
X23014Y5666
X23114Y4666
X23014Y3666
X14130Y7660
X14130Y9440
X11570Y9440
X11570Y7660
T06
X11250Y3400
X10250Y3400
X9250Y3400
X12250Y3400
X13950Y3450
X14950Y3450
X15950Y3450
X16950Y3450
X18500Y3350
X19500Y3350
X20500Y3350
X21500Y3350
X5700Y3400
X4700Y3400
X3700Y3400
T07
X23061Y1484
T08
X14450Y6050
X3450Y6050
X20450Y26050
X1450Y26550
M30
