G75*
G70*
%OFA0B0*%
%FSLAX24Y24*%
%IPPOS*%
%LPD*%
%AMOC8*
5,1,8,0,0,1.08239X$1,22.5*
%
%ADD10OC8,0.0600*%
%ADD11C,0.0760*%
%ADD12OC8,0.0720*%
%ADD13C,0.1320*%
%ADD14C,0.0660*%
%ADD15C,0.1044*%
%ADD16C,0.0800*%
%ADD17C,0.0330*%
D10*
X004900Y008250D03*
X009900Y008250D03*
D11*
X016400Y008625D03*
X017400Y008625D03*
X018400Y008625D03*
D12*
X020450Y009050D03*
X020450Y008050D03*
X020450Y007050D03*
X020450Y010050D03*
X020450Y011050D03*
X020450Y012050D03*
X020450Y013050D03*
X020450Y014050D03*
X020450Y015650D03*
X020450Y016650D03*
X020450Y017650D03*
X020450Y018650D03*
X020450Y019650D03*
X020450Y020650D03*
X020450Y021650D03*
X020450Y022650D03*
X020450Y023650D03*
X020450Y024650D03*
X001450Y021050D03*
X001450Y020050D03*
X001450Y019050D03*
X001450Y018050D03*
X001450Y017050D03*
X001450Y016050D03*
X001450Y015050D03*
X001450Y014050D03*
X001450Y012050D03*
X001450Y011050D03*
X001450Y010050D03*
X001450Y009050D03*
X001450Y008050D03*
X001450Y007050D03*
D13*
X003450Y006050D03*
X014450Y006050D03*
X020450Y026050D03*
X001450Y026550D03*
D14*
X011270Y009440D02*
X011870Y009440D01*
X011870Y007660D02*
X011270Y007660D01*
X013830Y007660D02*
X014430Y007660D01*
X014430Y009440D02*
X013830Y009440D01*
X022714Y009666D02*
X023314Y009666D01*
X023414Y010666D02*
X022814Y010666D01*
X022714Y011666D02*
X023314Y011666D01*
X023414Y012666D02*
X022814Y012666D01*
X022714Y013666D02*
X023314Y013666D01*
X023414Y014666D02*
X022814Y014666D01*
X022714Y015666D02*
X023314Y015666D01*
X023414Y016666D02*
X022814Y016666D01*
X022714Y017666D02*
X023314Y017666D01*
X023414Y018666D02*
X022814Y018666D01*
X022814Y008666D02*
X023414Y008666D01*
X023314Y007666D02*
X022714Y007666D01*
X022814Y006666D02*
X023414Y006666D01*
X023314Y005666D02*
X022714Y005666D01*
X022814Y004666D02*
X023414Y004666D01*
X023314Y003666D02*
X022714Y003666D01*
D15*
X023061Y001484D03*
D16*
X021500Y002980D02*
X021500Y003720D01*
X020500Y003720D02*
X020500Y002980D01*
X019500Y002980D02*
X019500Y003720D01*
X018500Y003720D02*
X018500Y002980D01*
X016950Y003080D02*
X016950Y003820D01*
X015950Y003820D02*
X015950Y003080D01*
X014950Y003080D02*
X014950Y003820D01*
X013950Y003820D02*
X013950Y003080D01*
X012250Y003030D02*
X012250Y003770D01*
X011250Y003770D02*
X011250Y003030D01*
X010250Y003030D02*
X010250Y003770D01*
X009250Y003770D02*
X009250Y003030D01*
X005700Y003030D02*
X005700Y003770D01*
X004700Y003770D02*
X004700Y003030D01*
X003700Y003030D02*
X003700Y003770D01*
D17*
X001000Y001150D03*
X005050Y001200D03*
X007950Y001300D03*
X010400Y001300D03*
X013150Y001300D03*
X013100Y003450D03*
X015650Y001300D03*
X017700Y003450D03*
X018450Y001250D03*
X021450Y001300D03*
X019350Y005650D03*
X013950Y010900D03*
X016550Y011600D03*
X015600Y014450D03*
X012900Y013800D03*
X012350Y016750D03*
X012900Y019200D03*
X014400Y021000D03*
X012950Y024600D03*
X014300Y026450D03*
X007600Y021050D03*
X005600Y020800D03*
X004400Y019200D03*
X003400Y017050D03*
X006700Y015550D03*
X008650Y014050D03*
X004400Y013800D03*
X002150Y012300D03*
X002900Y011700D03*
X003000Y010600D03*
X001950Y010650D03*
X002100Y009650D03*
X002100Y008550D03*
X002100Y007550D03*
X000850Y005200D03*
X006250Y009850D03*
X008400Y006350D03*
X008150Y004000D03*
X011250Y006100D03*
X001550Y013100D03*
X004400Y024600D03*
X004800Y026500D03*
X023100Y026200D03*
X022900Y021900D03*
M02*
