G75*
G70*
%OFA0B0*%
%FSLAX24Y24*%
%IPPOS*%
%LPD*%
%AMOC8*
5,1,8,0,0,1.08239X$1,22.5*
%
%ADD10C,0.0000*%
D10*
X000450Y000500D02*
X024250Y000500D01*
X024250Y027650D01*
X000450Y027650D01*
X000450Y000500D01*
X002820Y006050D02*
X002822Y006100D01*
X002828Y006150D01*
X002838Y006199D01*
X002852Y006247D01*
X002869Y006294D01*
X002890Y006339D01*
X002915Y006383D01*
X002943Y006424D01*
X002975Y006463D01*
X003009Y006500D01*
X003046Y006534D01*
X003086Y006564D01*
X003128Y006591D01*
X003172Y006615D01*
X003218Y006636D01*
X003265Y006652D01*
X003313Y006665D01*
X003363Y006674D01*
X003412Y006679D01*
X003463Y006680D01*
X003513Y006677D01*
X003562Y006670D01*
X003611Y006659D01*
X003659Y006644D01*
X003705Y006626D01*
X003750Y006604D01*
X003793Y006578D01*
X003834Y006549D01*
X003873Y006517D01*
X003909Y006482D01*
X003941Y006444D01*
X003971Y006404D01*
X003998Y006361D01*
X004021Y006317D01*
X004040Y006271D01*
X004056Y006223D01*
X004068Y006174D01*
X004076Y006125D01*
X004080Y006075D01*
X004080Y006025D01*
X004076Y005975D01*
X004068Y005926D01*
X004056Y005877D01*
X004040Y005829D01*
X004021Y005783D01*
X003998Y005739D01*
X003971Y005696D01*
X003941Y005656D01*
X003909Y005618D01*
X003873Y005583D01*
X003834Y005551D01*
X003793Y005522D01*
X003750Y005496D01*
X003705Y005474D01*
X003659Y005456D01*
X003611Y005441D01*
X003562Y005430D01*
X003513Y005423D01*
X003463Y005420D01*
X003412Y005421D01*
X003363Y005426D01*
X003313Y005435D01*
X003265Y005448D01*
X003218Y005464D01*
X003172Y005485D01*
X003128Y005509D01*
X003086Y005536D01*
X003046Y005566D01*
X003009Y005600D01*
X002975Y005637D01*
X002943Y005676D01*
X002915Y005717D01*
X002890Y005761D01*
X002869Y005806D01*
X002852Y005853D01*
X002838Y005901D01*
X002828Y005950D01*
X002822Y006000D01*
X002820Y006050D01*
X013820Y006050D02*
X013822Y006100D01*
X013828Y006150D01*
X013838Y006199D01*
X013852Y006247D01*
X013869Y006294D01*
X013890Y006339D01*
X013915Y006383D01*
X013943Y006424D01*
X013975Y006463D01*
X014009Y006500D01*
X014046Y006534D01*
X014086Y006564D01*
X014128Y006591D01*
X014172Y006615D01*
X014218Y006636D01*
X014265Y006652D01*
X014313Y006665D01*
X014363Y006674D01*
X014412Y006679D01*
X014463Y006680D01*
X014513Y006677D01*
X014562Y006670D01*
X014611Y006659D01*
X014659Y006644D01*
X014705Y006626D01*
X014750Y006604D01*
X014793Y006578D01*
X014834Y006549D01*
X014873Y006517D01*
X014909Y006482D01*
X014941Y006444D01*
X014971Y006404D01*
X014998Y006361D01*
X015021Y006317D01*
X015040Y006271D01*
X015056Y006223D01*
X015068Y006174D01*
X015076Y006125D01*
X015080Y006075D01*
X015080Y006025D01*
X015076Y005975D01*
X015068Y005926D01*
X015056Y005877D01*
X015040Y005829D01*
X015021Y005783D01*
X014998Y005739D01*
X014971Y005696D01*
X014941Y005656D01*
X014909Y005618D01*
X014873Y005583D01*
X014834Y005551D01*
X014793Y005522D01*
X014750Y005496D01*
X014705Y005474D01*
X014659Y005456D01*
X014611Y005441D01*
X014562Y005430D01*
X014513Y005423D01*
X014463Y005420D01*
X014412Y005421D01*
X014363Y005426D01*
X014313Y005435D01*
X014265Y005448D01*
X014218Y005464D01*
X014172Y005485D01*
X014128Y005509D01*
X014086Y005536D01*
X014046Y005566D01*
X014009Y005600D01*
X013975Y005637D01*
X013943Y005676D01*
X013915Y005717D01*
X013890Y005761D01*
X013869Y005806D01*
X013852Y005853D01*
X013838Y005901D01*
X013828Y005950D01*
X013822Y006000D01*
X013820Y006050D01*
X022569Y001484D02*
X022571Y001528D01*
X022577Y001572D01*
X022587Y001615D01*
X022600Y001657D01*
X022618Y001697D01*
X022639Y001736D01*
X022663Y001773D01*
X022690Y001808D01*
X022721Y001840D01*
X022754Y001869D01*
X022790Y001895D01*
X022828Y001917D01*
X022868Y001936D01*
X022909Y001952D01*
X022952Y001964D01*
X022995Y001972D01*
X023039Y001976D01*
X023083Y001976D01*
X023127Y001972D01*
X023170Y001964D01*
X023213Y001952D01*
X023254Y001936D01*
X023294Y001917D01*
X023332Y001895D01*
X023368Y001869D01*
X023401Y001840D01*
X023432Y001808D01*
X023459Y001773D01*
X023483Y001736D01*
X023504Y001697D01*
X023522Y001657D01*
X023535Y001615D01*
X023545Y001572D01*
X023551Y001528D01*
X023553Y001484D01*
X023551Y001440D01*
X023545Y001396D01*
X023535Y001353D01*
X023522Y001311D01*
X023504Y001271D01*
X023483Y001232D01*
X023459Y001195D01*
X023432Y001160D01*
X023401Y001128D01*
X023368Y001099D01*
X023332Y001073D01*
X023294Y001051D01*
X023254Y001032D01*
X023213Y001016D01*
X023170Y001004D01*
X023127Y000996D01*
X023083Y000992D01*
X023039Y000992D01*
X022995Y000996D01*
X022952Y001004D01*
X022909Y001016D01*
X022868Y001032D01*
X022828Y001051D01*
X022790Y001073D01*
X022754Y001099D01*
X022721Y001128D01*
X022690Y001160D01*
X022663Y001195D01*
X022639Y001232D01*
X022618Y001271D01*
X022600Y001311D01*
X022587Y001353D01*
X022577Y001396D01*
X022571Y001440D01*
X022569Y001484D01*
X019820Y026050D02*
X019822Y026100D01*
X019828Y026150D01*
X019838Y026199D01*
X019852Y026247D01*
X019869Y026294D01*
X019890Y026339D01*
X019915Y026383D01*
X019943Y026424D01*
X019975Y026463D01*
X020009Y026500D01*
X020046Y026534D01*
X020086Y026564D01*
X020128Y026591D01*
X020172Y026615D01*
X020218Y026636D01*
X020265Y026652D01*
X020313Y026665D01*
X020363Y026674D01*
X020412Y026679D01*
X020463Y026680D01*
X020513Y026677D01*
X020562Y026670D01*
X020611Y026659D01*
X020659Y026644D01*
X020705Y026626D01*
X020750Y026604D01*
X020793Y026578D01*
X020834Y026549D01*
X020873Y026517D01*
X020909Y026482D01*
X020941Y026444D01*
X020971Y026404D01*
X020998Y026361D01*
X021021Y026317D01*
X021040Y026271D01*
X021056Y026223D01*
X021068Y026174D01*
X021076Y026125D01*
X021080Y026075D01*
X021080Y026025D01*
X021076Y025975D01*
X021068Y025926D01*
X021056Y025877D01*
X021040Y025829D01*
X021021Y025783D01*
X020998Y025739D01*
X020971Y025696D01*
X020941Y025656D01*
X020909Y025618D01*
X020873Y025583D01*
X020834Y025551D01*
X020793Y025522D01*
X020750Y025496D01*
X020705Y025474D01*
X020659Y025456D01*
X020611Y025441D01*
X020562Y025430D01*
X020513Y025423D01*
X020463Y025420D01*
X020412Y025421D01*
X020363Y025426D01*
X020313Y025435D01*
X020265Y025448D01*
X020218Y025464D01*
X020172Y025485D01*
X020128Y025509D01*
X020086Y025536D01*
X020046Y025566D01*
X020009Y025600D01*
X019975Y025637D01*
X019943Y025676D01*
X019915Y025717D01*
X019890Y025761D01*
X019869Y025806D01*
X019852Y025853D01*
X019838Y025901D01*
X019828Y025950D01*
X019822Y026000D01*
X019820Y026050D01*
X000820Y026550D02*
X000822Y026600D01*
X000828Y026650D01*
X000838Y026699D01*
X000852Y026747D01*
X000869Y026794D01*
X000890Y026839D01*
X000915Y026883D01*
X000943Y026924D01*
X000975Y026963D01*
X001009Y027000D01*
X001046Y027034D01*
X001086Y027064D01*
X001128Y027091D01*
X001172Y027115D01*
X001218Y027136D01*
X001265Y027152D01*
X001313Y027165D01*
X001363Y027174D01*
X001412Y027179D01*
X001463Y027180D01*
X001513Y027177D01*
X001562Y027170D01*
X001611Y027159D01*
X001659Y027144D01*
X001705Y027126D01*
X001750Y027104D01*
X001793Y027078D01*
X001834Y027049D01*
X001873Y027017D01*
X001909Y026982D01*
X001941Y026944D01*
X001971Y026904D01*
X001998Y026861D01*
X002021Y026817D01*
X002040Y026771D01*
X002056Y026723D01*
X002068Y026674D01*
X002076Y026625D01*
X002080Y026575D01*
X002080Y026525D01*
X002076Y026475D01*
X002068Y026426D01*
X002056Y026377D01*
X002040Y026329D01*
X002021Y026283D01*
X001998Y026239D01*
X001971Y026196D01*
X001941Y026156D01*
X001909Y026118D01*
X001873Y026083D01*
X001834Y026051D01*
X001793Y026022D01*
X001750Y025996D01*
X001705Y025974D01*
X001659Y025956D01*
X001611Y025941D01*
X001562Y025930D01*
X001513Y025923D01*
X001463Y025920D01*
X001412Y025921D01*
X001363Y025926D01*
X001313Y025935D01*
X001265Y025948D01*
X001218Y025964D01*
X001172Y025985D01*
X001128Y026009D01*
X001086Y026036D01*
X001046Y026066D01*
X001009Y026100D01*
X000975Y026137D01*
X000943Y026176D01*
X000915Y026217D01*
X000890Y026261D01*
X000869Y026306D01*
X000852Y026353D01*
X000838Y026401D01*
X000828Y026450D01*
X000822Y026500D01*
X000820Y026550D01*
M02*
